<?xml version="1.0" encoding="UTF-8" standalone="no"?><!DOCTYPE svg PUBLIC "-//W3C//DTD SVG 1.1//EN" "http://www.w3.org/Graphics/SVG/1.1/DTD/svg11.dtd"><svg width="100%" height="100%" viewBox="0 0 953 953" version="1.1" xmlns="http://www.w3.org/2000/svg" xmlns:xlink="http://www.w3.org/1999/xlink" xml:space="preserve" style="fill-rule:evenodd;clip-rule:evenodd;stroke-linejoin:round;stroke-miterlimit:1.41421;"><circle cx="471.088" cy="473.542" r="474.088" style="fill:#fff;"/><path d="M810.558,139.4c-43.7,-43.7 -94.6,-78 -151.3,-102c-58.7,-24.8 -121,-37.4 -185.3,-37.4c-64.2,0.1 -126.5,12.6 -185.2,37.5c-56.7,24 -107.6,58.3 -151.3,102c-43.7,43.7 -78,94.6 -102,151.3c-24.8,58.7 -37.4,121 -37.4,185.3c0,64.201 12.6,126.6 37.4,185.301c24,56.699 58.3,107.6 102,151.299c43.7,43.701 94.6,78 151.3,102c58.7,24.801 121,37.4 185.3,37.4c64.2,0 126.601,-12.6 185.3,-37.4c56.7,-24 107.601,-58.299 151.301,-102c43.699,-43.699 78,-94.6 102,-151.299c24.8,-58.701 37.399,-121 37.399,-185.301c0,-64.2 -12.6,-126.6 -37.399,-185.3c-24.101,-56.8 -58.401,-107.6 -102.101,-151.4Zm-600,-31.9c4.3,-3.3 8.5,-6.8 12.9,-9.9c23.1,-16.2 48.7,-29.3 74.7,-40.2c55.4,-23.2 115.6,-35.4 175.8,-35.4c40.1,0 81.2,5.4 119.899,16c-15.3,6.2 -34,18 -65.399,44.8c-26.101,-2.8 -52.5,-2.9 -79,-0.4c-34.601,3.3 -69.4,11 -103.4,23c-30.7,10.8 -55,23.1 -71.4,32.5c-25.1,-9 -57.5,-19.6 -73.5,-24.8c2.5,0.8 7.7,-4.3 9.4,-5.6Zm433.6,119l-81.4,222.2l-195.3,37.5l-161.4,-166.7c10.9,-75.6 62.7,-142.6 62.7,-142.6c0.3,-0.2 34.1,-24.6 88.3,-43.5c31.601,-11.1 63.8,-18.2 95.9,-21.2c26.2,-2.4 52.3,-2 78.1,1.1l113.1,113.2Zm-606.8,233.7c-5,32.3 -6.1,65.8 -3.5,99.5c-3.9,-7.799 -7,-14.398 -9.3,-19.699c-3,-20.9 -4.5,-42.301 -4.5,-64.1c0,-67 14.5,-130.7 40.6,-188c-2.9,30 -1.5,61.1 0.6,84.7c-11.2,28.099 -19.2,57.399 -23.9,87.599Zm39.5,173.101c-4.6,-16.9 -10,-41.5 -12.7,-71c-3,-33.301 -2.1,-66.4 2.9,-98.101c3.8,-24.3 9.9,-47.899 18.3,-70.6c32.9,-27.8 76.5,-44.1 100.6,-51.6l158.4,163.6l-16.6,179.3l-154.8,51.7c-39.4,-29 -71.6,-67.401 -96.1,-103.299Zm470.4,259.599c-34.5,22.6 -121.7,28 -157.1,29.299c-39,-7.299 -76.9,-19.799 -112.601,-37c-31.2,-15 -60.8,-33.6 -87.8,-55.398c0.5,-0.9 -4.2,-48.602 -4,-66l156.4,-52.201l180.5,78.1l24.899,102.9c-0.198,0.201 -0.298,0.3 -0.298,0.3Zm299.9,-158.3c-26.9,38.8 -59.1,74.9 -97.8,102.3c-36.3,25.6 -84.899,34.4 -128.1,41.5c-3.3,0.5 -44.6,7.299 -44.9,5.9l-24.899,-103l127.099,-132.3l168.3,-15.5c2.601,26.801 6,65.9 8,89.801c-2.6,3.799 -5.1,7.599 -7.7,11.299Zm2.6,-134.6c-0.6,1 -1.2,2.1 -1.8,3.301l-167.6,15.398l-90.2,-157.799l81.6,-222.7l115.2,7.3c24.5,20.5 46.2,43.3 64.6,67.9c23,30.9 40.9,64.8 53.101,100.7c-12.801,111.201 -42.301,166.599 -54.901,185.9Zm60.1,-250.2c-9.899,-19.1 -21.5,-37.5 -34.6,-55c-20.7,-27.7 -45.3,-53.2 -73.2,-75.9c-5.1,-25.3 -19.1,-65.1 -56.7,-106.9c0.7,0.5 1.4,1.1 2.101,1.6c2.3,1.7 4.5,3.5 6.8,5.2c25.9,20.4 49.5,43.5 70.4,68.9c38.8,47.3 68.1,102.2 85.3,161.1c-0.101,0.4 -0.101,0.7 -0.101,1Z" style="fill-rule:nonzero;"/></svg>