<?xml version="1.0" encoding="utf-8"?>
<!-- Generator: Adobe Illustrator 21.1.0, SVG Export Plug-In . SVG Version: 6.00 Build 0)  -->
<svg version="1.1" id="Layer_1" xmlns="http://www.w3.org/2000/svg" xmlns:xlink="http://www.w3.org/1999/xlink" x="0px" y="0px"
	 viewBox="0 0 1024 768" style="enable-background:new 0 0 1024 768;" xml:space="preserve">
<style type="text/css">
	.st0{clip-path:url(#SVGID_19_);}
</style>
<g>
	<g>
		<defs>
			<polygon id="SVGID_1_" points="50.7,660.3 51,660.3 51.3,660.3 51.6,660.3 51.9,660.3 52.1,660.3 52.4,660.3 52.7,660.3 
				53,660.4 53.3,660.4 53.5,660.4 53.8,660.4 54.1,660.5 54.3,660.5 54.6,660.5 54.7,660.5 54.9,660.6 55,660.6 55.1,660.6 
				55.3,660.6 55.4,660.6 55.5,660.7 55.6,660.7 55.8,660.7 55.9,660.7 56,660.7 56.1,660.8 56.3,660.8 56.4,660.8 56.5,660.8 
				56.7,660.9 56.8,660.9 56.9,660.9 57,661 57.1,661 57.3,661 57.4,661 57.5,661.1 57.6,661.1 57.7,661.1 57.9,661.2 58,661.2 
				58.1,661.2 58.2,661.3 58.3,661.3 58.5,661.3 58.6,661.4 58.7,661.4 58.8,661.4 58.9,661.5 59,661.5 59.2,661.6 59.3,661.6 
				59.4,661.6 59.5,661.7 59.6,661.7 59.7,661.8 59.8,661.8 59.9,661.8 60,661.9 60.2,661.9 60.3,662 60.4,662 60.5,662.1 
				60.6,662.1 60.7,662.2 60.8,662.2 60.9,662.3 61,662.3 61.1,662.4 61.2,662.4 61.3,662.5 61.4,662.5 61.5,662.6 61.6,662.6 
				61.7,662.7 61.8,662.7 61.9,662.8 62,662.9 62.1,662.9 62.2,663 62.3,663 62.4,663.1 62.5,663.1 62.6,663.2 62.7,663.3 
				62.8,663.3 62.9,663.4 63,663.5 63.1,663.5 63.2,663.6 63.3,663.6 63.4,663.7 63.5,663.8 63.6,663.8 63.6,663.9 63.7,664 
				63.8,664.1 63.9,664.1 64,664.2 64.1,664.3 64.2,664.3 64.3,664.4 64.3,664.5 64.4,664.6 64.5,664.6 64.6,664.7 64.7,664.8 
				64.7,664.9 64.8,664.9 64.9,665 65,665.1 65.1,665.2 65.1,665.3 65.2,665.3 65.3,665.4 65.4,665.5 65.5,665.6 65.5,665.7 
				65.6,665.7 65.7,665.8 65.7,665.9 65.8,666 65.9,666.1 66,666.2 66,666.3 66.1,666.4 66.2,666.4 66.2,666.5 66.3,666.6 
				66.4,666.7 66.4,666.8 66.5,666.9 66.6,667 66.6,667.1 66.7,667.2 66.7,667.3 66.8,667.4 66.9,667.5 66.9,667.5 67,667.6 
				67,667.7 67.1,667.8 67.2,667.9 67.2,668 67.3,668.1 67.3,668.2 67.4,668.3 67.4,668.4 67.5,668.5 67.5,668.6 67.6,668.7 
				67.6,668.8 67.7,668.9 67.7,669 67.8,669.2 67.8,669.3 67.9,669.4 67.9,669.5 67.9,669.6 68,669.7 68,669.8 68.1,669.9 68.1,670 
				68.2,670.1 68.2,670.2 68.2,670.3 68.3,670.4 68.3,670.5 68.3,670.7 68.4,670.8 68.4,670.9 68.5,671 68.5,671.1 68.5,671.2 
				68.6,671.3 68.6,671.4 68.6,671.6 68.6,671.7 68.7,671.8 68.7,671.9 68.7,672 68.8,672.1 68.8,672.3 68.8,672.4 68.8,672.5 
				68.9,672.6 68.9,672.7 68.9,672.9 68.9,673 69,673.1 69,673.2 69,673.3 69,673.5 69,673.6 69.1,673.7 69.1,673.8 69.1,673.9 
				69.1,674.1 69.1,674.2 69.1,674.3 69.1,674.4 69.2,674.6 69.2,674.7 69.2,674.8 69.2,674.9 69.2,675.1 69.2,675.2 69.2,675.3 
				69.2,675.5 69.2,675.6 69.2,675.7 69.3,675.8 69.3,676 69.3,676.1 69.3,676.2 69.3,676.4 69.3,676.5 69.3,676.6 69.3,676.8 
				69.3,676.9 69.3,677 69.3,677.2 69.3,677.3 69.3,677.4 69.3,677.6 69.3,677.7 69.3,677.8 69.3,678 69.3,678.3 69.3,678.5 
				69.2,678.8 69.2,679.1 69.2,679.4 69.2,679.6 69.2,679.8 69.1,679.9 69.1,680 69.1,680.1 69.1,680.2 69,680.4 69,680.5 
				68.9,680.6 68.8,680.7 68.8,680.8 68.7,680.9 68.6,681 68.5,681.1 68.4,681.2 68.4,681.2 68.3,681.3 68.2,681.4 68.1,681.4 
				67.9,681.5 67.8,681.6 67.7,681.6 67.6,681.7 67.5,681.7 67.4,681.7 67.2,681.7 67.1,681.8 67,681.8 66.9,681.8 66.8,681.8 
				66.6,681.8 66.5,681.7 66.4,681.7 66.3,681.7 66.2,681.7 66,681.6 65.9,681.6 65.8,681.5 65.7,681.5 65.6,681.4 65.5,681.3 
				65.4,681.2 65.3,681.2 65.2,681.1 65.1,681 65.1,680.9 65,680.8 64.9,680.7 64.9,680.6 64.8,680.5 64.7,680.4 64.7,680.2 
				64.7,680.1 64.6,680 64.6,679.9 64.6,679.8 64.6,679.6 64.6,679.5 64.6,679.4 64.6,679.3 64.6,679 64.6,678.8 64.6,678.5 
				64.6,678.3 64.6,678.1 64.7,677.8 64.7,677.7 64.7,677.6 64.7,677.5 64.7,677.4 64.7,677.3 64.7,677.2 64.7,677 64.7,676.9 
				64.7,676.8 64.7,676.7 64.7,676.6 64.7,676.5 64.7,676.4 64.7,676.3 64.6,676.2 64.6,676.1 64.6,676 64.6,675.9 64.6,675.8 
				64.6,675.7 64.6,675.6 64.6,675.4 64.6,675.3 64.6,675.2 64.6,675.1 64.6,675 64.6,674.9 64.5,674.8 64.5,674.7 64.5,674.7 
				64.5,674.6 64.5,674.5 64.5,674.4 64.5,674.3 64.5,674.2 64.4,674.1 64.4,674 64.4,673.9 64.4,673.8 64.4,673.7 64.4,673.6 
				64.3,673.5 64.3,673.4 64.3,673.4 64.3,673.3 64.3,673.2 64.2,673.1 64.2,673 64.2,672.9 64.2,672.8 64.2,672.8 64.1,672.7 
				64.1,672.6 64.1,672.5 64.1,672.4 64,672.3 64,672.3 64,672.2 64,672.1 63.9,672 63.9,671.9 63.9,671.9 63.9,671.8 63.8,671.7 
				63.8,671.6 63.8,671.6 63.7,671.5 63.7,671.4 63.7,671.3 63.6,671.3 63.6,671.2 63.6,671.1 63.6,671 63.5,671 63.5,670.9 
				63.5,670.8 63.4,670.8 63.4,670.7 63.4,670.6 63.3,670.6 63.3,670.5 63.2,670.4 63.2,670.4 63.2,670.3 63.1,670.2 63.1,670.2 
				63.1,670.1 63,670 63,670 62.9,669.9 62.9,669.8 62.9,669.8 62.8,669.7 62.8,669.7 62.7,669.6 62.7,669.5 62.7,669.5 62.6,669.4 
				62.6,669.4 62.5,669.3 62.5,669.2 62.4,669.2 62.4,669.1 62.4,669.1 62.3,669 62.3,669 62.2,668.9 62.2,668.8 62.1,668.8 
				62.1,668.7 62,668.7 62,668.6 61.9,668.6 61.9,668.5 61.8,668.5 61.8,668.4 61.7,668.4 61.7,668.3 61.6,668.3 61.6,668.2 
				61.5,668.2 61.5,668.1 61.4,668.1 61.4,668 61.3,668 61.2,667.9 61.2,667.9 61.1,667.8 61.1,667.8 61,667.7 61,667.7 60.9,667.6 
				60.8,667.6 60.8,667.5 60.7,667.5 60.7,667.5 60.6,667.4 60.5,667.4 60.5,667.3 60.4,667.3 60.3,667.2 60.3,667.2 60.2,667.1 
				60.1,667.1 60.1,667.1 60,667 59.9,667 59.9,666.9 59.8,666.9 59.7,666.9 59.7,666.8 59.6,666.8 59.5,666.7 59.5,666.7 
				59.4,666.7 59.3,666.6 59.2,666.6 59.2,666.6 59.1,666.5 59,666.5 58.9,666.4 58.9,666.4 58.8,666.4 58.7,666.3 58.6,666.3 
				58.6,666.3 58.5,666.2 58.4,666.2 58.3,666.2 58.2,666.1 58.2,666.1 58.1,666.1 58,666 57.9,666 57.8,666 57.7,666 57.6,665.9 
				57.6,665.9 57.5,665.9 57.4,665.8 57.3,665.8 57.2,665.8 57.1,665.8 57,665.7 56.9,665.7 56.8,665.7 56.8,665.6 56.7,665.6 
				56.6,665.6 56.5,665.6 56.4,665.5 56.3,665.5 56.2,665.5 56.1,665.5 56,665.5 55.9,665.4 55.8,665.4 55.7,665.4 55.6,665.4 
				55.5,665.3 55.4,665.3 55.3,665.3 55.2,665.3 55.1,665.3 55,665.3 54.9,665.2 54.8,665.2 54.7,665.2 54.6,665.2 54.4,665.2 
				54.3,665.1 54.2,665.1 54.1,665.1 54,665.1 53.8,665.1 53.6,665 53.3,665 53.1,665 52.9,665 52.6,665 52.4,664.9 52.2,664.9 
				51.9,664.9 51.7,664.9 51.4,664.9 51.2,664.9 50.9,664.9 50.7,664.9 50.4,664.9 50.3,664.9 50.1,664.9 50,664.8 49.9,664.8 
				49.8,664.8 49.7,664.8 49.6,664.7 49.4,664.7 49.3,664.6 49.2,664.6 49.1,664.5 49,664.4 48.9,664.3 48.8,664.3 48.7,664.2 
				48.7,664.1 48.6,664 48.5,663.9 48.4,663.8 48.4,663.7 48.3,663.6 48.3,663.5 48.2,663.3 48.2,663.2 48.2,663.1 48.1,663 
				48.1,662.9 48.1,662.7 48.1,662.6 48.1,662.5 48.1,662.4 48.1,662.2 48.1,662.1 48.2,662 48.2,661.9 48.2,661.8 48.3,661.7 
				48.3,661.5 48.4,661.4 48.5,661.3 48.5,661.2 48.6,661.1 48.7,661 48.8,660.9 48.9,660.9 48.9,660.8 49,660.7 49.1,660.6 
				49.3,660.6 49.4,660.5 49.5,660.5 49.6,660.4 49.7,660.4 49.8,660.3 49.9,660.3 50.1,660.3 50.2,660.3 50.3,660.3 50.4,660.3 
				50.7,660.3 			"/>
		</defs>
		<clipPath id="SVGID_2_">
			<use xlink:href="#SVGID_1_"  style="overflow:visible;"/>
		</clipPath>
		<g style="clip-path:url(#SVGID_2_);">
			
				<image style="overflow:visible;" width="30" height="30" xlink:href="F6ED6564.jpg"  transform="matrix(0.7576 0 0 0.7683 47.3287 659.4902)">
			</image>
		</g>
	</g>
	<g>
		<defs>
			<polygon id="SVGID_3_" points="67.1,91.6 67.2,91.6 67.3,91.6 67.4,91.6 67.6,91.7 67.7,91.7 67.8,91.7 67.9,91.8 68,91.8 
				68.1,91.9 68.2,91.9 68.3,92 68.4,92.1 68.5,92.2 68.6,92.3 68.7,92.3 68.8,92.4 68.9,92.5 68.9,92.6 69,92.7 69.1,92.8 69.1,93 
				69.2,93.1 69.2,93.2 69.2,93.3 69.3,93.4 69.3,93.5 69.3,93.7 69.3,93.8 69.3,93.9 69.3,94.2 69.3,94.5 69.3,94.8 69.3,95.1 
				69.3,95.3 69.3,95.6 69.3,95.9 69.2,96.2 69.2,96.5 69.2,96.7 69.2,97 69.1,97.3 69.1,97.6 69.1,97.8 69,98.1 69,98.2 69,98.4 
				69,98.5 69,98.6 69,98.7 68.9,98.9 68.9,99 68.9,99.1 68.9,99.3 68.8,99.4 68.8,99.5 68.8,99.6 68.8,99.8 68.8,99.9 68.7,100 
				68.7,100.1 68.7,100.3 68.6,100.4 68.6,100.5 68.6,100.6 68.6,100.8 68.5,100.9 68.5,101 68.5,101.1 68.4,101.2 68.4,101.4 
				68.4,101.5 68.3,101.6 68.3,101.7 68.3,101.8 68.2,101.9 68.2,102.1 68.2,102.2 68.1,102.3 68.1,102.4 68.1,102.5 68,102.6 
				68,102.8 67.9,102.9 67.9,103 67.9,103.1 67.8,103.2 67.8,103.3 67.7,103.4 67.7,103.5 67.6,103.6 67.6,103.8 67.5,103.9 
				67.5,104 67.5,104.1 67.4,104.2 67.4,104.3 67.3,104.4 67.3,104.5 67.2,104.6 67.2,104.7 67.1,104.8 67,104.9 67,105 66.9,105.1 
				66.9,105.2 66.8,105.3 66.8,105.4 66.7,105.5 66.7,105.6 66.6,105.7 66.5,105.8 66.5,105.9 66.4,106 66.4,106.1 66.3,106.2 
				66.2,106.3 66.2,106.4 66.1,106.5 66.1,106.6 66,106.7 65.9,106.8 65.9,106.9 65.8,106.9 65.7,107 65.7,107.1 65.6,107.2 
				65.5,107.3 65.4,107.4 65.4,107.5 65.3,107.6 65.2,107.7 65.2,107.7 65.1,107.8 65,107.9 64.9,108 64.9,108.1 64.8,108.2 
				64.7,108.2 64.6,108.3 64.6,108.4 64.5,108.5 64.4,108.6 64.3,108.6 64.2,108.7 64.2,108.8 64.1,108.9 64,108.9 63.9,109 
				63.8,109.1 63.7,109.2 63.7,109.2 63.6,109.3 63.5,109.4 63.4,109.4 63.3,109.5 63.2,109.6 63.1,109.7 63,109.7 63,109.8 
				62.9,109.9 62.8,109.9 62.7,110 62.6,110 62.5,110.1 62.4,110.2 62.3,110.2 62.2,110.3 62.1,110.4 62,110.4 61.9,110.5 
				61.8,110.5 61.7,110.6 61.6,110.6 61.5,110.7 61.4,110.7 61.3,110.8 61.2,110.9 61.1,110.9 61,111 60.9,111 60.8,111.1 
				60.7,111.1 60.6,111.2 60.5,111.2 60.4,111.3 60.3,111.3 60.2,111.3 60.1,111.4 60,111.4 59.9,111.5 59.8,111.5 59.7,111.6 
				59.6,111.6 59.5,111.6 59.4,111.7 59.2,111.7 59.1,111.8 59,111.8 58.9,111.8 58.8,111.9 58.7,111.9 58.6,111.9 58.5,112 
				58.3,112 58.2,112 58.1,112.1 58,112.1 57.9,112.1 57.8,112.2 57.7,112.2 57.5,112.2 57.4,112.2 57.3,112.3 57.2,112.3 
				57.1,112.3 57,112.3 56.8,112.4 56.7,112.4 56.6,112.4 56.5,112.4 56.4,112.5 56.2,112.5 56.1,112.5 56,112.5 55.9,112.5 
				55.7,112.6 55.6,112.6 55.5,112.6 55.4,112.6 55.3,112.6 55.1,112.6 55,112.6 54.9,112.7 54.8,112.7 54.6,112.7 54.5,112.7 
				54.4,112.7 54.2,112.7 54.1,112.7 54,112.7 53.9,112.7 53.7,112.7 53.6,112.7 53.5,112.8 53.3,112.8 53.2,112.8 53.1,112.8 
				52.9,112.8 52.8,112.8 52.7,112.8 52.5,112.8 52.4,112.8 52.3,112.8 52.1,112.8 52,112.8 51.9,112.8 51.7,112.8 51.6,112.8 
				51.3,112.8 51,112.7 50.8,112.7 50.5,112.7 50.2,112.7 49.9,112.7 49.8,112.7 49.7,112.6 49.6,112.6 49.4,112.6 49.3,112.5 
				49.2,112.5 49.1,112.4 49,112.4 48.9,112.3 48.8,112.3 48.7,112.2 48.6,112.1 48.5,112 48.4,111.9 48.3,111.8 48.3,111.7 
				48.2,111.6 48.1,111.5 48.1,111.4 48,111.3 48,111.2 47.9,111.1 47.9,111 47.9,110.9 47.8,110.7 47.8,110.6 47.8,110.5 
				47.8,110.4 47.8,110.2 47.8,110.1 47.8,110 47.9,109.9 47.9,109.8 47.9,109.6 48,109.5 48,109.4 48.1,109.3 48.1,109.2 
				48.2,109.1 48.3,109 48.3,108.9 48.4,108.8 48.5,108.7 48.6,108.6 48.7,108.5 48.8,108.5 48.9,108.4 49,108.3 49.1,108.3 
				49.2,108.2 49.3,108.2 49.4,108.2 49.6,108.1 49.7,108.1 49.8,108.1 49.9,108.1 50,108.1 50.2,108.1 50.3,108.1 50.5,108.1 
				50.8,108.1 51,108.1 51.3,108.1 51.5,108.1 51.7,108.1 51.8,108.1 52,108.1 52.1,108.2 52.2,108.2 52.3,108.2 52.4,108.2 
				52.5,108.2 52.6,108.2 52.7,108.2 52.9,108.2 53,108.1 53.1,108.1 53.2,108.1 53.3,108.1 53.4,108.1 53.5,108.1 53.6,108.1 
				53.7,108.1 53.8,108.1 53.9,108.1 54,108.1 54.1,108.1 54.2,108.1 54.3,108.1 54.4,108.1 54.5,108.1 54.6,108 54.7,108 54.8,108 
				54.9,108 55,108 55.1,108 55.2,108 55.3,108 55.4,107.9 55.5,107.9 55.6,107.9 55.7,107.9 55.8,107.9 55.9,107.9 55.9,107.8 
				56,107.8 56.1,107.8 56.2,107.8 56.3,107.8 56.4,107.7 56.5,107.7 56.6,107.7 56.6,107.7 56.7,107.7 56.8,107.6 56.9,107.6 
				57,107.6 57.1,107.6 57.1,107.5 57.2,107.5 57.3,107.5 57.4,107.5 57.5,107.4 57.6,107.4 57.6,107.4 57.7,107.4 57.8,107.3 
				57.9,107.3 57.9,107.3 58,107.3 58.1,107.2 58.2,107.2 58.2,107.2 58.3,107.1 58.4,107.1 58.5,107.1 58.5,107 58.6,107 58.7,107 
				58.7,106.9 58.8,106.9 58.9,106.9 58.9,106.8 59,106.8 59.1,106.8 59.2,106.7 59.2,106.7 59.3,106.7 59.3,106.6 59.4,106.6 
				59.5,106.5 59.5,106.5 59.6,106.5 59.7,106.4 59.7,106.4 59.8,106.4 59.9,106.3 59.9,106.3 60,106.2 60,106.2 60.1,106.1 
				60.2,106.1 60.2,106.1 60.3,106 60.3,106 60.4,105.9 60.5,105.9 60.5,105.8 60.6,105.8 60.6,105.7 60.7,105.7 60.7,105.7 
				60.8,105.6 60.8,105.6 60.9,105.5 60.9,105.5 61,105.4 61.1,105.4 61.1,105.3 61.2,105.3 61.2,105.2 61.3,105.2 61.3,105.1 
				61.4,105.1 61.4,105 61.5,104.9 61.5,104.9 61.6,104.8 61.6,104.8 61.7,104.7 61.7,104.7 61.8,104.6 61.8,104.6 61.8,104.5 
				61.9,104.4 61.9,104.4 62,104.3 62,104.3 62.1,104.2 62.1,104.1 62.2,104.1 62.2,104 62.3,104 62.3,103.9 62.3,103.8 62.4,103.8 
				62.4,103.7 62.5,103.6 62.5,103.6 62.5,103.5 62.6,103.4 62.6,103.4 62.7,103.3 62.7,103.2 62.7,103.2 62.8,103.1 62.8,103 
				62.9,102.9 62.9,102.9 62.9,102.8 63,102.7 63,102.7 63.1,102.6 63.1,102.5 63.1,102.4 63.2,102.4 63.2,102.3 63.2,102.2 
				63.3,102.1 63.3,102 63.3,102 63.4,101.9 63.4,101.8 63.4,101.7 63.5,101.6 63.5,101.6 63.5,101.5 63.6,101.4 63.6,101.3 
				63.6,101.2 63.6,101.1 63.7,101 63.7,101 63.7,100.9 63.8,100.8 63.8,100.7 63.8,100.6 63.8,100.5 63.9,100.4 63.9,100.3 
				63.9,100.2 63.9,100.1 64,100.1 64,100 64,99.9 64,99.8 64.1,99.7 64.1,99.6 64.1,99.5 64.1,99.4 64.2,99.3 64.2,99.2 64.2,99.1 
				64.2,99 64.2,98.9 64.3,98.8 64.3,98.7 64.3,98.6 64.3,98.5 64.3,98.4 64.4,98.3 64.4,98.1 64.4,98 64.4,97.9 64.4,97.8 
				64.4,97.7 64.5,97.6 64.5,97.5 64.5,97.3 64.5,97 64.5,96.8 64.6,96.6 64.6,96.4 64.6,96.1 64.6,95.9 64.6,95.6 64.7,95.4 
				64.7,95.2 64.7,94.9 64.7,94.7 64.7,94.4 64.7,94.1 64.7,93.9 64.7,93.8 64.7,93.6 64.7,93.5 64.7,93.4 64.8,93.3 64.8,93.2 
				64.9,93 64.9,92.9 65,92.8 65,92.7 65.1,92.6 65.2,92.5 65.2,92.4 65.3,92.3 65.4,92.2 65.5,92.1 65.6,92.1 65.7,92 65.8,91.9 
				65.9,91.9 66,91.8 66.1,91.8 66.2,91.7 66.4,91.7 66.5,91.6 66.6,91.6 66.7,91.6 66.8,91.6 67,91.6 67.1,91.6 			"/>
		</defs>
		<clipPath id="SVGID_4_">
			<use xlink:href="#SVGID_3_"  style="overflow:visible;"/>
		</clipPath>
		<g transform="matrix(1 0 0 1 0 0)" style="clip-path:url(#SVGID_4_);">
			
				<image style="overflow:visible;" width="30" height="30" xlink:href="F6ED6565.jpg"  transform="matrix(0.7683 0 0 0.7576 47.0307 90.8165)">
			</image>
		</g>
	</g>
	<g>
		<defs>
			<polygon id="SVGID_5_" points="963.4,89.8 963.6,89.9 963.7,89.9 963.8,89.9 963.9,89.9 964,90 964.2,90 964.3,90 964.4,90.1 
				964.5,90.2 964.6,90.2 964.7,90.3 964.8,90.4 964.9,90.5 965,90.5 965.1,90.6 965.1,90.7 965.2,90.8 965.3,90.9 965.3,91 
				965.4,91.1 965.4,91.2 965.5,91.4 965.5,91.5 965.6,91.6 965.6,91.7 965.6,91.8 965.6,92 965.6,92.1 965.6,92.2 965.6,92.3 
				965.6,92.6 965.6,92.8 965.6,93.1 965.6,93.3 965.6,93.5 965.5,93.8 965.5,93.9 965.5,94 965.5,94.1 965.5,94.2 965.5,94.3 
				965.5,94.5 965.5,94.6 965.5,94.7 965.5,94.8 965.5,94.9 965.5,95 965.5,95.1 965.5,95.2 965.5,95.3 965.6,95.4 965.6,95.5 
				965.6,95.6 965.6,95.7 965.6,95.9 965.6,96 965.6,96.1 965.6,96.2 965.6,96.3 965.6,96.4 965.6,96.5 965.6,96.6 965.6,96.7 
				965.7,96.8 965.7,96.9 965.7,97 965.7,97.1 965.7,97.2 965.7,97.2 965.7,97.3 965.7,97.4 965.8,97.5 965.8,97.6 965.8,97.7 
				965.8,97.8 965.8,97.9 965.8,98 965.9,98.1 965.9,98.2 965.9,98.3 965.9,98.3 965.9,98.4 966,98.5 966,98.6 966,98.7 966,98.8 
				966,98.9 966.1,98.9 966.1,99 966.1,99.1 966.1,99.2 966.2,99.3 966.2,99.4 966.2,99.4 966.2,99.5 966.3,99.6 966.3,99.7 
				966.3,99.7 966.3,99.8 966.4,99.9 966.4,100 966.4,100.1 966.5,100.1 966.5,100.2 966.5,100.3 966.6,100.4 966.6,100.4 
				966.6,100.5 966.6,100.6 966.7,100.6 966.7,100.7 966.7,100.8 966.8,100.9 966.8,100.9 966.8,101 966.9,101.1 966.9,101.1 
				967,101.2 967,101.3 967,101.3 967.1,101.4 967.1,101.5 967.1,101.5 967.2,101.6 967.2,101.6 967.3,101.7 967.3,101.8 
				967.3,101.8 967.4,101.9 967.4,102 967.5,102 967.5,102.1 967.5,102.1 967.6,102.2 967.6,102.3 967.7,102.3 967.7,102.4 
				967.8,102.4 967.8,102.5 967.8,102.5 967.9,102.6 967.9,102.7 968,102.7 968,102.8 968.1,102.8 968.1,102.9 968.2,102.9 
				968.2,103 968.3,103 968.3,103.1 968.4,103.1 968.4,103.2 968.5,103.2 968.5,103.3 968.6,103.4 968.6,103.4 968.7,103.5 
				968.7,103.5 968.8,103.6 968.8,103.6 968.9,103.6 969,103.7 969,103.7 969.1,103.8 969.1,103.8 969.2,103.9 969.2,103.9 
				969.3,104 969.4,104 969.4,104.1 969.5,104.1 969.5,104.2 969.6,104.2 969.7,104.2 969.7,104.3 969.8,104.3 969.9,104.4 
				969.9,104.4 970,104.5 970.1,104.5 970.1,104.5 970.2,104.6 970.3,104.6 970.3,104.7 970.4,104.7 970.5,104.7 970.5,104.8 
				970.6,104.8 970.7,104.9 970.7,104.9 970.8,104.9 970.9,105 971,105 971,105.1 971.1,105.1 971.2,105.1 971.3,105.2 971.3,105.2 
				971.4,105.2 971.5,105.3 971.6,105.3 971.6,105.3 971.7,105.4 971.8,105.4 971.9,105.4 972,105.5 972,105.5 972.1,105.5 
				972.2,105.6 972.3,105.6 972.4,105.6 972.5,105.7 972.6,105.7 972.6,105.7 972.7,105.7 972.8,105.8 972.9,105.8 973,105.8 
				973.1,105.9 973.2,105.9 973.3,105.9 973.4,105.9 973.4,106 973.5,106 973.6,106 973.7,106 973.8,106.1 973.9,106.1 974,106.1 
				974.1,106.1 974.2,106.2 974.3,106.2 974.4,106.2 974.5,106.2 974.6,106.2 974.7,106.3 974.8,106.3 974.9,106.3 975,106.3 
				975.1,106.3 975.2,106.4 975.3,106.4 975.4,106.4 975.5,106.4 975.6,106.4 975.8,106.4 975.9,106.5 976,106.5 976.1,106.5 
				976.2,106.5 976.4,106.5 976.6,106.6 976.9,106.6 977.1,106.6 977.3,106.6 977.6,106.6 977.8,106.7 978,106.7 978.3,106.7 
				978.5,106.7 978.8,106.7 979,106.7 979.3,106.7 979.5,106.7 979.8,106.7 979.9,106.7 980.1,106.7 980.2,106.8 980.3,106.8 
				980.4,106.8 980.5,106.9 980.6,106.9 980.8,106.9 980.9,107 981,107.1 981.1,107.1 981.2,107.2 981.3,107.3 981.4,107.4 
				981.5,107.4 981.5,107.5 981.6,107.6 981.7,107.7 981.8,107.8 981.8,107.9 981.9,108 981.9,108.2 982,108.3 982,108.4 982,108.5 
				982.1,108.6 982.1,108.8 982.1,108.9 982.1,109 982.1,109.1 982.1,109.2 982.1,109.4 982.1,109.5 982,109.6 982,109.7 982,109.8 
				981.9,110 981.9,110.1 981.8,110.2 981.7,110.3 981.7,110.4 981.6,110.5 981.5,110.6 981.4,110.7 981.3,110.7 981.3,110.8 
				981.2,110.9 981.1,111 980.9,111 980.8,111.1 980.7,111.2 980.6,111.2 980.5,111.2 980.4,111.3 980.3,111.3 980.1,111.3 
				980,111.3 979.9,111.3 979.8,111.4 979.5,111.3 979.2,111.3 978.9,111.3 978.6,111.3 978.3,111.3 978.1,111.3 977.8,111.3 
				977.5,111.3 977.2,111.3 976.9,111.2 976.7,111.2 976.4,111.2 976.1,111.2 975.9,111.1 975.6,111.1 975.5,111.1 975.3,111.1 
				975.2,111 975.1,111 974.9,111 974.8,111 974.7,111 974.6,110.9 974.4,110.9 974.3,110.9 974.2,110.9 974,110.8 973.9,110.8 
				973.8,110.8 973.7,110.8 973.5,110.7 973.4,110.7 973.3,110.7 973.2,110.7 973.1,110.6 972.9,110.6 972.8,110.6 972.7,110.5 
				972.6,110.5 972.4,110.5 972.3,110.4 972.2,110.4 972.1,110.4 972,110.3 971.9,110.3 971.7,110.3 971.6,110.2 971.5,110.2 
				971.4,110.2 971.3,110.1 971.2,110.1 971,110.1 970.9,110 970.8,110 970.7,109.9 970.6,109.9 970.5,109.9 970.4,109.8 
				970.3,109.8 970.2,109.7 970,109.7 969.9,109.6 969.8,109.6 969.7,109.5 969.6,109.5 969.5,109.4 969.4,109.4 969.3,109.3 
				969.2,109.3 969.1,109.2 969,109.2 968.9,109.1 968.8,109.1 968.7,109 968.6,109 968.5,108.9 968.4,108.9 968.3,108.8 
				968.2,108.8 968.1,108.7 968,108.6 967.9,108.6 967.8,108.5 967.7,108.5 967.6,108.4 967.5,108.3 967.4,108.3 967.3,108.2 
				967.2,108.2 967.1,108.1 967,108 966.9,108 966.8,107.9 966.7,107.8 966.6,107.8 966.6,107.7 966.5,107.6 966.4,107.6 
				966.3,107.5 966.2,107.4 966.1,107.3 966,107.3 965.9,107.2 965.9,107.1 965.8,107.1 965.7,107 965.6,106.9 965.5,106.8 
				965.4,106.7 965.4,106.7 965.3,106.6 965.2,106.5 965.1,106.4 965.1,106.4 965,106.3 964.9,106.2 964.8,106.1 964.7,106 
				964.7,105.9 964.6,105.9 964.5,105.8 964.5,105.7 964.4,105.6 964.3,105.5 964.2,105.4 964.2,105.3 964.1,105.3 964,105.2 
				964,105.1 963.9,105 963.8,104.9 963.8,104.8 963.7,104.7 963.6,104.6 963.6,104.5 963.5,104.4 963.5,104.3 963.4,104.3 
				963.3,104.2 963.3,104.1 963.2,104 963.2,103.9 963.1,103.8 963,103.7 963,103.6 962.9,103.5 962.9,103.4 962.8,103.3 
				962.8,103.2 962.7,103.1 962.7,103 962.6,102.9 962.6,102.8 962.5,102.7 962.5,102.6 962.4,102.5 962.4,102.4 962.3,102.2 
				962.3,102.1 962.3,102 962.2,101.9 962.2,101.8 962.1,101.7 962.1,101.6 962,101.5 962,101.4 962,101.3 961.9,101.2 961.9,101.1 
				961.8,100.9 961.8,100.8 961.8,100.7 961.7,100.6 961.7,100.5 961.7,100.4 961.6,100.3 961.6,100.2 961.6,100 961.6,99.9 
				961.5,99.8 961.5,99.7 961.5,99.6 961.4,99.5 961.4,99.4 961.4,99.2 961.4,99.1 961.3,99 961.3,98.9 961.3,98.8 961.3,98.6 
				961.2,98.5 961.2,98.4 961.2,98.3 961.2,98.2 961.2,98 961.1,97.9 961.1,97.8 961.1,97.7 961.1,97.5 961.1,97.4 961.1,97.3 
				961.1,97.2 961,97 961,96.9 961,96.8 961,96.7 961,96.5 961,96.4 961,96.3 961,96.2 961,96 960.9,95.9 960.9,95.8 960.9,95.6 
				960.9,95.5 960.9,95.4 960.9,95.2 960.9,95.1 960.9,95 960.9,94.8 960.9,94.7 960.9,94.6 960.9,94.4 960.9,94.3 960.9,94.2 
				960.9,94 960.9,93.9 960.9,93.8 960.9,93.6 960.9,93.4 960.9,93.1 961,92.8 961,92.5 961,92.2 961,92 961,91.8 961.1,91.7 
				961.1,91.6 961.1,91.5 961.1,91.4 961.2,91.3 961.2,91.1 961.3,91 961.4,90.9 961.4,90.8 961.5,90.7 961.6,90.6 961.7,90.5 
				961.8,90.5 961.8,90.4 961.9,90.3 962,90.2 962.1,90.2 962.3,90.1 962.4,90 962.5,90 962.6,90 962.7,89.9 962.8,89.9 962.9,89.9 
				963.1,89.9 963.2,89.8 963.3,89.8 963.4,89.8 			"/>
		</defs>
		<clipPath id="SVGID_6_">
			<use xlink:href="#SVGID_5_"  style="overflow:visible;"/>
		</clipPath>
		<g transform="matrix(1 0 0 1 6.103516e-05 0)" style="clip-path:url(#SVGID_6_);">
			
				<image style="overflow:visible;" width="30" height="30" xlink:href="F6ED6563.jpg"  transform="matrix(0.7576 0 0 0.7683 960.1415 89.0711)">
			</image>
		</g>
	</g>
	<g>
		<defs>
			<polygon id="SVGID_7_" points="975.9,657.5 976.1,657.5 976.2,657.5 976.3,657.5 976.5,657.5 976.6,657.5 976.9,657.5 
				977.2,657.5 977.4,657.5 977.7,657.5 978,657.6 978.3,657.6 978.4,657.6 978.5,657.6 978.6,657.6 978.8,657.7 978.9,657.7 
				979,657.7 979.1,657.8 979.2,657.9 979.3,657.9 979.4,658 979.5,658.1 979.6,658.1 979.7,658.2 979.8,658.3 979.9,658.4 
				980,658.5 980,658.6 980.1,658.7 980.1,658.8 980.2,658.9 980.3,659 980.3,659.1 980.3,659.3 980.4,659.4 980.4,659.5 
				980.4,659.6 980.4,659.7 980.4,659.9 980.4,660 980.4,660.1 980.4,660.2 980.4,660.4 980.3,660.5 980.3,660.6 980.3,660.7 
				980.2,660.8 980.2,660.9 980.1,661 980,661.1 980,661.3 979.9,661.3 979.8,661.4 979.7,661.5 979.6,661.6 979.5,661.7 
				979.4,661.8 979.3,661.8 979.2,661.9 979.1,662 979,662 978.9,662 978.8,662.1 978.7,662.1 978.5,662.1 978.4,662.2 978.3,662.2 
				978.2,662.2 978,662.2 977.9,662.2 977.7,662.2 977.4,662.1 977.2,662.1 976.9,662.1 976.7,662.1 976.5,662.1 976.4,662.1 
				976.3,662.1 976.1,662.1 976,662.1 975.9,662.1 975.8,662.1 975.7,662.1 975.6,662.1 975.5,662.1 975.4,662.1 975.2,662.1 
				975.1,662.1 975,662.1 974.9,662.1 974.8,662.1 974.7,662.1 974.6,662.1 974.5,662.1 974.4,662.1 974.3,662.1 974.2,662.1 
				974.1,662.2 974,662.2 973.9,662.2 973.8,662.2 973.7,662.2 973.6,662.2 973.5,662.2 973.4,662.2 973.3,662.2 973.2,662.2 
				973.1,662.3 973,662.3 972.9,662.3 972.8,662.3 972.7,662.3 972.6,662.3 972.5,662.3 972.4,662.4 972.4,662.4 972.3,662.4 
				972.2,662.4 972.1,662.4 972,662.5 971.9,662.5 971.8,662.5 971.7,662.5 971.6,662.5 971.6,662.6 971.5,662.6 971.4,662.6 
				971.3,662.6 971.2,662.6 971.1,662.7 971.1,662.7 971,662.7 970.9,662.7 970.8,662.8 970.7,662.8 970.7,662.8 970.6,662.8 
				970.5,662.9 970.4,662.9 970.3,662.9 970.3,663 970.2,663 970.1,663 970,663 970,663.1 969.9,663.1 969.8,663.1 969.8,663.2 
				969.7,663.2 969.6,663.2 969.5,663.3 969.5,663.3 969.4,663.3 969.3,663.4 969.3,663.4 969.2,663.4 969.1,663.5 969.1,663.5 
				969,663.5 968.9,663.6 968.9,663.6 968.8,663.7 968.7,663.7 968.7,663.7 968.6,663.8 968.5,663.8 968.5,663.8 968.4,663.9 
				968.4,663.9 968.3,664 968.2,664 968.2,664.1 968.1,664.1 968.1,664.1 968,664.2 967.9,664.2 967.9,664.3 967.8,664.3 
				967.8,664.4 967.7,664.4 967.6,664.4 967.6,664.5 967.5,664.5 967.5,664.6 967.4,664.6 967.4,664.7 967.3,664.7 967.3,664.8 
				967.2,664.8 967.2,664.9 967.1,664.9 967.1,665 967,665 967,665.1 966.9,665.1 966.8,665.2 966.8,665.2 966.8,665.3 966.7,665.3 
				966.7,665.4 966.6,665.5 966.6,665.5 966.5,665.6 966.5,665.6 966.4,665.7 966.4,665.7 966.3,665.8 966.3,665.9 966.2,665.9 
				966.2,666 966.1,666 966.1,666.1 966,666.2 966,666.2 966,666.3 965.9,666.3 965.9,666.4 965.8,666.5 965.8,666.5 965.7,666.6 
				965.7,666.7 965.7,666.7 965.6,666.8 965.6,666.9 965.5,666.9 965.5,667 965.5,667.1 965.4,667.2 965.4,667.2 965.3,667.3 
				965.3,667.4 965.3,667.4 965.2,667.5 965.2,667.6 965.2,667.7 965.1,667.7 965.1,667.8 965.1,667.9 965,668 965,668 964.9,668.1 
				964.9,668.2 964.9,668.3 964.8,668.4 964.8,668.4 964.8,668.5 964.7,668.6 964.7,668.7 964.7,668.8 964.7,668.9 964.6,668.9 
				964.6,669 964.6,669.1 964.5,669.2 964.5,669.3 964.5,669.4 964.4,669.5 964.4,669.5 964.4,669.6 964.4,669.7 964.3,669.8 
				964.3,669.9 964.3,670 964.3,670.1 964.2,670.2 964.2,670.3 964.2,670.4 964.2,670.5 964.1,670.6 964.1,670.7 964.1,670.8 
				964.1,670.9 964,671 964,671.1 964,671.2 964,671.3 964,671.4 963.9,671.5 963.9,671.6 963.9,671.7 963.9,671.8 963.9,671.9 
				963.9,672 963.8,672.1 963.8,672.2 963.8,672.3 963.8,672.4 963.8,672.5 963.8,672.6 963.7,672.7 963.7,673 963.7,673.2 
				963.7,673.4 963.6,673.6 963.6,673.9 963.6,674.1 963.6,674.4 963.6,674.6 963.6,674.8 963.5,675.1 963.5,675.3 963.5,675.6 
				963.5,675.8 963.5,676.1 963.5,676.4 963.5,676.5 963.5,676.6 963.5,676.7 963.5,676.8 963.4,677 963.4,677.1 963.4,677.2 
				963.3,677.3 963.3,677.4 963.2,677.5 963.1,677.6 963.1,677.7 963,677.8 962.9,677.9 962.8,678 962.7,678.1 962.6,678.2 
				962.5,678.2 962.4,678.3 962.3,678.4 962.2,678.4 962.1,678.5 962,678.5 961.9,678.6 961.7,678.6 961.6,678.6 961.5,678.6 
				961.4,678.6 961.3,678.7 961.1,678.7 961,678.6 960.9,678.6 960.8,678.6 960.6,678.6 960.5,678.6 960.4,678.5 960.3,678.5 
				960.2,678.4 960.1,678.4 960,678.3 959.9,678.2 959.8,678.1 959.7,678.1 959.6,678 959.5,677.9 959.4,677.8 959.3,677.7 
				959.3,677.6 959.2,677.5 959.2,677.4 959.1,677.3 959.1,677.2 959,677.1 959,676.9 958.9,676.8 958.9,676.7 958.9,676.6 
				958.9,676.4 958.9,676.3 958.9,676 958.9,675.8 958.9,675.5 958.9,675.2 958.9,674.9 958.9,674.6 959,674.3 959,674 959,673.8 
				959,673.5 959,673.2 959.1,673 959.1,672.7 959.1,672.4 959.2,672.2 959.2,672 959.2,671.9 959.2,671.8 959.2,671.6 959.3,671.5 
				959.3,671.4 959.3,671.2 959.3,671.1 959.3,671 959.4,670.9 959.4,670.7 959.4,670.6 959.4,670.5 959.5,670.4 959.5,670.2 
				959.5,670.1 959.5,670 959.6,669.9 959.6,669.7 959.6,669.6 959.6,669.5 959.7,669.4 959.7,669.2 959.7,669.1 959.8,669 
				959.8,668.9 959.8,668.8 959.9,668.6 959.9,668.5 959.9,668.4 960,668.3 960,668.2 960,668.1 960.1,667.9 960.1,667.8 
				960.2,667.7 960.2,667.6 960.2,667.5 960.3,667.4 960.3,667.3 960.4,667.2 960.4,667 960.4,666.9 960.5,666.8 960.5,666.7 
				960.6,666.6 960.6,666.5 960.7,666.4 960.7,666.3 960.8,666.2 960.8,666.1 960.9,666 960.9,665.8 961,665.7 961,665.6 
				961.1,665.5 961.1,665.4 961.2,665.3 961.2,665.2 961.3,665.1 961.3,665 961.4,664.9 961.4,664.8 961.5,664.7 961.5,664.6 
				961.6,664.5 961.7,664.4 961.7,664.3 961.8,664.2 961.8,664.1 961.9,664 962,663.9 962,663.8 962.1,663.8 962.2,663.7 
				962.2,663.6 962.3,663.5 962.4,663.4 962.4,663.3 962.5,663.2 962.6,663.1 962.6,663 962.7,662.9 962.8,662.8 962.8,662.8 
				962.9,662.7 963,662.6 963.1,662.5 963.1,662.4 963.2,662.3 963.3,662.2 963.3,662.2 963.4,662.1 963.5,662 963.6,661.9 
				963.7,661.8 963.7,661.8 963.8,661.7 963.9,661.6 964,661.5 964.1,661.5 964.1,661.4 964.2,661.3 964.3,661.2 964.4,661.2 
				964.5,661.1 964.6,661 964.6,660.9 964.7,660.9 964.8,660.8 964.9,660.7 965,660.7 965.1,660.6 965.2,660.5 965.3,660.5 
				965.3,660.4 965.4,660.3 965.5,660.3 965.6,660.2 965.7,660.1 965.8,660.1 965.9,660 966,659.9 966.1,659.9 966.2,659.8 
				966.3,659.8 966.4,659.7 966.5,659.7 966.6,659.6 966.7,659.5 966.8,659.5 966.9,659.4 967,659.4 967.1,659.3 967.2,659.3 
				967.3,659.2 967.4,659.2 967.5,659.1 967.6,659.1 967.7,659 967.8,659 967.9,658.9 968,658.9 968.1,658.8 968.2,658.8 
				968.3,658.8 968.4,658.7 968.5,658.7 968.6,658.6 968.8,658.6 968.9,658.6 969,658.5 969.1,658.5 969.2,658.4 969.3,658.4 
				969.4,658.4 969.5,658.3 969.6,658.3 969.7,658.3 969.9,658.2 970,658.2 970.1,658.2 970.2,658.1 970.3,658.1 970.4,658.1 
				970.6,658 970.7,658 970.8,658 970.9,658 971,657.9 971.1,657.9 971.3,657.9 971.4,657.9 971.5,657.8 971.6,657.8 971.7,657.8 
				971.9,657.8 972,657.8 972.1,657.7 972.2,657.7 972.3,657.7 972.5,657.7 972.6,657.7 972.7,657.7 972.8,657.6 973,657.6 
				973.1,657.6 973.2,657.6 973.3,657.6 973.5,657.6 973.6,657.6 973.7,657.5 973.8,657.5 974,657.5 974.1,657.5 974.2,657.5 
				974.4,657.5 974.5,657.5 974.6,657.5 974.7,657.5 974.9,657.5 975,657.5 975.1,657.5 975.3,657.5 975.4,657.5 975.5,657.5 
				975.7,657.5 975.8,657.5 975.9,657.5 			"/>
		</defs>
		<clipPath id="SVGID_8_">
			<use xlink:href="#SVGID_7_"  style="overflow:visible;"/>
		</clipPath>
		<g transform="matrix(1 0 0 1 -6.103516e-05 0)" style="clip-path:url(#SVGID_8_);">
			
				<image style="overflow:visible;" width="30" height="30" xlink:href="F6ED656C.jpg"  transform="matrix(0.7683 0 0 0.7576 958.1306 656.696)">
			</image>
		</g>
	</g>
	<g>
		<defs>
			<path id="SVGID_9_" d="M515.4,279.1l0.3,0l0.3,0l0.3,0l0.3,0l0.3,0l0.3,0l0.3,0l0.3,0l0.3,0l0.3,0l0.3,0l0.3,0l0.3,0l0.3,0l0.3,0
				l0.3,0l0.3,0l0.3,0l0.3,0l0.3,0l0.3,0l0.3,0l0.3,0l0.3,0l0.3,0l0.3,0l0.3,0l0.3,0l0.3,0l0.3,0l0.3,0l0.3,0l0.3,0l0.3,0l0.3,0
				l0.3,0l0.3,0l0.3,0l0.3,0l0.3,0l0.3,0l0.3,0l0.3,0l0.3,0l0.3,0l0.3,0l0.3,0.1l0.3,0.1l0.3,0.1l0.3,0.1l0.3,0.1l0.3,0.1l0.3,0.1
				l0.3,0.1l0.3,0.1l0.3,0.1l0.3,0.1l0.3,0.1l0.3,0.1l0.3,0.1l0.3,0.1l0.3,0.1l0.3,0.1l0.3,0.1l0.3,0.1l0.3,0.1l0.3,0.1l0.3,0.1
				l0.3,0.1l0.3,0.1l0.3,0.1l0.3,0.1l0.3,0.1l0.3,0.1l0.3,0.1l0.3,0.1l0.3,0.1l0.3,0.1l0.3,0.1l0.3,0.1l0.3,0.1l0.3,0.1l0.3,0.1
				l0.3,0.1l0.3,0.1l0.3,0.1l0.3,0.1l0.3,0.1l0.3,0.1l0.3,0.1l0.3,0.1l0.3,0.1l0.3,0.1l0.3,0.1l0.3,0.1l0.3,0.1l0.3,0.1l0.3,0.1
				l0.3,0.1l0.3,0.1l0.3,0.1l0.3,0.1l0.3,0.1l0.3,0.1l0.3,0.1l0.3,0.1l0.3,0.1l0.3,0.1l0.3,0.1l0.3,0.1l0.3,0.1l0.3,0.1l0.3,0.1
				l0.3,0.1l0.3,0.1l0.3,0.1l0.3,0.1l0.3,0.1l0.3,0.1l0.3,0.1l0.3,0.1l0.3,0.1l0.3,0.1l0.3,0.1l0.3,0.1l0.3,0.1l0.3,0.1l0.3,0.1
				l0.3,0.1l0.3,0.1l0.3,0.1l0.3,0.1l0.3,0.1l0.3,0.1l0.3,0.1l0.3,0.1l0.3,0.1l0.3,0.1l0.3,0.1l0.3,0.1l0.3,0.1l0.3,0.1l0.3,0.1
				l0.3,0.1l0.3,0.1l0.3,0.1l0.3,0.1l0.3,0.1l0.3,0.1l0.3,0.1l0.3,0.1l0.3,0.1l0.3,0.1l0.3,0.2l0.3,0.2l0.3,0.2l0.3,0.2l0.3,0.2
				l0.3,0.2l0.3,0.2l0.3,0.2l0.3,0.2l0.3,0.2l0.3,0.2l0.3,0.2l0.3,0.2l0.3,0.2l0.3,0.2l0.3,0.2l0.3,0.2l0.3,0.2l0.3,0.2l0.3,0.2
				l0.3,0.2l0.3,0.2l0.3,0.2l0.3,0.2l0.3,0.2l0.3,0.2l0.3,0.2l0.3,0.2l0.3,0.2l0.3,0.2l0.3,0.2l0.3,0.2l0.3,0.2l0.3,0.2l0.3,0.2
				l0.3,0.2l0.3,0.2l0.3,0.2l0.3,0.2l0.3,0.2l0.3,0.2l0.3,0.2l0.3,0.2l0.3,0.2l0.3,0.2l0.3,0.2l0.3,0.2l0.3,0.2l0.3,0.2l0.3,0.2
				l0.3,0.2l0.3,0.2l0.3,0.2l0.3,0.2l0.3,0.2l0.3,0.2l0.3,0.2l0.3,0.2l0.3,0.2l0.3,0.2l0.3,0.2l0.3,0.2l0.3,0.2l0.3,0.2l0.3,0.2
				l0.3,0.2l0.2,0.2l0.2,0.2l0.2,0.2l0.2,0.2l0.2,0.2l0.2,0.2l0.2,0.2l0.2,0.2l0.2,0.2l0.2,0.2l0.2,0.2l0.2,0.2l0.2,0.2l0.2,0.2
				l0.2,0.2l0.2,0.2l0.2,0.2l0.2,0.2l0.2,0.2l0.2,0.2l0.2,0.2l0.2,0.2l0.2,0.2l0.2,0.2l0.2,0.2l0.2,0.2l0.2,0.2l0.2,0.2l0.2,0.2
				l0.2,0.2l0.2,0.2l0.2,0.2l0.2,0.2l0.2,0.2l0.2,0.2l0.2,0.2l0.2,0.2l0.2,0.2l0.2,0.2l0.2,0.2l0.2,0.2l0.2,0.2l0.2,0.2l0.2,0.2
				l0.2,0.2l0.2,0.2l0.2,0.2l0.2,0.2l0.2,0.2l0.2,0.2l0.2,0.2l0.2,0.2l0.2,0.2l0.2,0.2l0.2,0.2l0.2,0.2l0.2,0.2l0.2,0.2l0.2,0.2
				l0.2,0.2l0.2,0.2l0.2,0.2l0.2,0.2l0.2,0.2l0.2,0.2l0.2,0.2l0.2,0.2l0.2,0.2l0.2,0.2l0.2,0.2l0.2,0.2l0.2,0.2l0.2,0.3l0.2,0.3
				l0.2,0.3l0.2,0.3l0.2,0.3l0.2,0.3l0.2,0.3l0.2,0.3l0.2,0.3l0.2,0.3l0.2,0.3l0.2,0.3l0.2,0.3l0.2,0.3l0.2,0.3l0.2,0.3l0.2,0.3
				l0.2,0.3l0.2,0.3l0.2,0.3l0.2,0.3l0.2,0.3l0.2,0.3l0.2,0.3l0.2,0.3l0.2,0.3l0.2,0.3l0.2,0.3l0.2,0.3l0.2,0.3l0.2,0.3l0.2,0.3
				l0.2,0.3l0.2,0.3l0.2,0.3l0.2,0.3l0.2,0.3l0.2,0.3l0.2,0.3l0.2,0.3l0.2,0.3l0.2,0.3l0.2,0.3l0.2,0.3l0.2,0.3l0.2,0.3l0.2,0.3
				l0.2,0.3l0.2,0.3l0.2,0.3l0.2,0.3l0.2,0.3l0.2,0.3l0.2,0.3l0.2,0.3l0.2,0.3l0.2,0.3l0.2,0.3l0.2,0.3l0.2,0.3l0.2,0.3l0.2,0.3
				l0.2,0.3l0.2,0.3l0.2,0.3l0.2,0.3l0.1,0.3l0.1,0.3l0.1,0.3l0.1,0.3l0.1,0.3l0.1,0.3l0.1,0.3l0.1,0.3l0.1,0.3l0.1,0.3l0.1,0.3
				l0.1,0.3l0.1,0.3l0.1,0.3l0.1,0.3l0.1,0.3l0.1,0.3l0.1,0.3l0.1,0.3l0.1,0.3l0.1,0.3l0.1,0.3l0.1,0.3l0.1,0.3l0.1,0.3l0.1,0.3
				l0.1,0.3l0.1,0.3l0.1,0.3l0.1,0.3l0.1,0.3l0.1,0.3l0.1,0.3l0.1,0.3l0.1,0.3l0.1,0.3l0.1,0.3l0.1,0.3l0.1,0.3l0.1,0.3l0.1,0.3
				l0.1,0.3l0.1,0.3l0.1,0.3l0.1,0.3l0.1,0.3l0.1,0.3l0.1,0.3l0.1,0.3l0.1,0.3l0.1,0.3l0.1,0.3l0.1,0.3l0.1,0.3l0.1,0.3l0.1,0.3
				l0.1,0.3l0.1,0.3l0.1,0.3l0.1,0.3l0.1,0.3l0.1,0.3l0.1,0.3l0.1,0.3l0.1,0.3l0.1,0.3l0.1,0.3l0.1,0.3l0.1,0.3l0.1,0.3l0.1,0.3
				l0.1,0.3l0.1,0.3l0.1,0.3l0.1,0.3l0.1,0.3l0.1,0.3l0.1,0.3l0.1,0.3l0.1,0.3l0.1,0.3l0.1,0.3l0.1,0.3l0.1,0.3l0.1,0.3l0.1,0.3
				l0.1,0.3l0.1,0.3l0.1,0.3l0.1,0.3l0.1,0.3l0.1,0.3l0.1,0.3l0.1,0.3l0.1,0.3l0.1,0.3l0.1,0.3l0.1,0.3l0.1,0.3l0.1,0.3l0.1,0.3
				l0.1,0.3l0.1,0.3l0.1,0.3l0.1,0.3l0.1,0.3l0.1,0.3l0,0.3l0,0.3l0,0.3l0,0.3l0,0.3l0,0.3l0,0.3l0,0.3l0,0.3l0,0.3l0,0.3l0,0.3
				l0,0.3l0,0.3l0,0.3l0,0.3l0,0.3l0,0.3l0,0.3l0,0.3l0,0.3l0,0.3l0,0.3l0,0.3l0,0.3l0,0.3l0,0.3l0,0.3l0,0.3l0,0.3l0,0.3l0,0.3
				l0,0.3l0,0.3l0,0.3l0,0.3l0,0.3l0,0.3l0,0.3l0,0.3l0,0.3l0,0.3l0,0.3l0,0.3l0,0.3l0,0.3l0,0.3l0,0.3l0,0.3l0,0.3l0,0.3l0,0.3
				l0,0.3l0,0.3l0,0.3l0,0.3l0,0.3l0,0.3l0,0.3l0,0.3l0,0.3l0,0.3l0,0.3l0,0.3l0,0.3l0,0.3l0,0.3l0,0.3l0,0.3l0,0.3l0,0.3l0,0.3
				l0,0.3l0,0.3l0,0.3l0,0.3l0,0.3l0,0.3l0,0.3l0,0.3l0,0.3l0,0.3l0,0.3l0,0.3l0,0.3l0,0.3l0,0.3l0,0.3l0,0.3l0,0.3l0,0.3l0,0.3
				l0,0.3l0,0.3l-0.1,0.3l-0.1,0.3l-0.1,0.3l-0.1,0.3l-0.1,0.3l-0.1,0.3l-0.1,0.3l-0.1,0.3l-0.1,0.3l-0.1,0.3l-0.1,0.3l-0.1,0.3
				l-0.1,0.3l-0.1,0.3L620,407l-0.1,0.3l-0.1,0.3l-0.1,0.3l-0.1,0.3l-0.1,0.3l-0.1,0.3l-0.1,0.3l-0.1,0.3l-0.1,0.3l-0.1,0.3
				l-0.1,0.3l-0.1,0.3l-0.1,0.3l-0.1,0.3l-0.1,0.3l-0.1,0.3l-0.1,0.3l-0.1,0.3l-0.1,0.3l-0.1,0.3l-0.1,0.3l-0.1,0.3l-0.1,0.3
				l-0.1,0.3l-0.1,0.3l-0.1,0.3l-0.1,0.3l-0.1,0.3l-0.1,0.3l-0.1,0.3l-0.1,0.3l-0.1,0.3l-0.1,0.3l-0.1,0.3l-0.1,0.3l-0.1,0.3
				l-0.1,0.3l-0.1,0.3l-0.1,0.3l-0.1,0.3l-0.1,0.3l-0.1,0.3l-0.1,0.3l-0.1,0.3l-0.1,0.3l-0.1,0.3l-0.1,0.3l-0.1,0.3l-0.1,0.3
				l-0.1,0.3l-0.1,0.3l-0.1,0.3l-0.1,0.3l-0.1,0.3l-0.1,0.3l-0.1,0.3l-0.1,0.3l-0.1,0.3l-0.1,0.3l-0.1,0.3l-0.1,0.3l-0.1,0.3
				l-0.1,0.3l-0.1,0.3l-0.1,0.3l-0.1,0.3l-0.1,0.3l-0.1,0.3l-0.1,0.3l-0.1,0.3l-0.1,0.3l-0.1,0.3l-0.1,0.3l-0.1,0.3l-0.1,0.3
				l-0.1,0.3l-0.1,0.3l-0.1,0.3l-0.1,0.3l-0.1,0.3l-0.1,0.3l-0.1,0.3l-0.1,0.3l-0.1,0.3l-0.1,0.3l-0.1,0.3l-0.1,0.3l-0.1,0.3
				l-0.1,0.3l-0.1,0.3l-0.1,0.3l-0.1,0.3l-0.2,0.3l-0.2,0.3l-0.2,0.3l-0.2,0.3l-0.2,0.3l-0.2,0.3l-0.2,0.3l-0.2,0.3l-0.2,0.3
				l-0.2,0.3l-0.2,0.3l-0.2,0.3l-0.2,0.3l-0.2,0.3l-0.2,0.3l-0.2,0.3l-0.2,0.3l-0.2,0.3l-0.2,0.3l-0.2,0.3l-0.2,0.3l-0.2,0.3
				l-0.2,0.3l-0.2,0.3l-0.2,0.3l-0.2,0.3l-0.2,0.3l-0.2,0.3l-0.2,0.3l-0.2,0.3L605,444l-0.2,0.3l-0.2,0.3l-0.2,0.3l-0.2,0.3
				l-0.2,0.3l-0.2,0.3l-0.2,0.3l-0.2,0.3l-0.2,0.3l-0.2,0.3l-0.2,0.3l-0.2,0.3l-0.2,0.3l-0.2,0.3l-0.2,0.3l-0.2,0.3l-0.2,0.3
				l-0.2,0.3l-0.2,0.3l-0.2,0.3l-0.2,0.3l-0.2,0.3l-0.2,0.3l-0.2,0.3l-0.2,0.3l-0.2,0.3l-0.2,0.3l-0.2,0.3l-0.2,0.3l-0.2,0.3
				l-0.2,0.3l-0.2,0.3l-0.2,0.3l-0.2,0.3l-0.2,0.3l-0.2,0.3l-0.2,0.2l-0.2,0.2l-0.2,0.2l-0.2,0.2l-0.2,0.2l-0.2,0.2l-0.2,0.2
				l-0.2,0.2l-0.2,0.2l-0.2,0.2l-0.2,0.2l-0.2,0.2l-0.2,0.2l-0.2,0.2l-0.2,0.2l-0.2,0.2l-0.2,0.2l-0.2,0.2l-0.2,0.2l-0.2,0.2
				l-0.2,0.2l-0.2,0.2l-0.2,0.2l-0.2,0.2l-0.2,0.2l-0.2,0.2l-0.2,0.2l-0.2,0.2l-0.2,0.2l-0.2,0.2l-0.2,0.2l-0.2,0.2l-0.2,0.2
				l-0.2,0.2l-0.2,0.2l-0.2,0.2l-0.2,0.2l-0.2,0.2l-0.2,0.2l-0.2,0.2l-0.2,0.2l-0.2,0.2l-0.2,0.2l-0.2,0.2l-0.2,0.2l-0.2,0.2
				l-0.2,0.2l-0.2,0.2l-0.2,0.2l-0.2,0.2l-0.2,0.2l-0.2,0.2l-0.2,0.2l-0.2,0.2l-0.2,0.2l-0.2,0.2l-0.2,0.2l-0.2,0.2l-0.2,0.2
				l-0.2,0.2l-0.2,0.2l-0.2,0.2l-0.2,0.2l-0.2,0.2l-0.2,0.2l-0.2,0.2l-0.2,0.2l-0.2,0.2l-0.2,0.2l-0.2,0.2l-0.2,0.2l-0.3,0.2
				l-0.3,0.2l-0.3,0.2l-0.3,0.2l-0.3,0.2l-0.3,0.2l-0.3,0.2l-0.3,0.2l-0.3,0.2l-0.3,0.2l-0.3,0.2l-0.3,0.2l-0.3,0.2l-0.3,0.2
				l-0.3,0.2l-0.3,0.2l-0.3,0.2l-0.3,0.2l-0.3,0.2l-0.3,0.2l-0.3,0.2l-0.3,0.2l-0.3,0.2l-0.3,0.2l-0.3,0.2l-0.3,0.2l-0.3,0.2
				l-0.3,0.2l-0.3,0.2l-0.3,0.2l-0.3,0.2l-0.3,0.2l-0.3,0.2l-0.3,0.2l-0.3,0.2l-0.3,0.2l-0.3,0.2l-0.3,0.2l-0.3,0.2l-0.3,0.2
				l-0.3,0.2l-0.3,0.2l-0.3,0.2l-0.3,0.2l-0.3,0.2l-0.3,0.2l-0.3,0.2l-0.3,0.2l-0.3,0.2l-0.3,0.2l-0.3,0.2l-0.3,0.2l-0.3,0.2
				l-0.3,0.2l-0.3,0.2l-0.3,0.2l-0.3,0.2l-0.3,0.2l-0.3,0.2l-0.3,0.2l-0.3,0.2l-0.3,0.2l-0.3,0.2l-0.3,0.2l-0.3,0.2l-0.3,0.2
				l-0.3,0.1l-0.3,0.1l-0.3,0.1l-0.3,0.1l-0.3,0.1l-0.3,0.1l-0.3,0.1l-0.3,0.1l-0.3,0.1l-0.3,0.1l-0.3,0.1l-0.3,0.1l-0.3,0.1
				l-0.3,0.1l-0.3,0.1l-0.3,0.1l-0.3,0.1l-0.3,0.1l-0.3,0.1l-0.3,0.1l-0.3,0.1l-0.3,0.1l-0.3,0.1l-0.3,0.1l-0.3,0.1l-0.3,0.1
				l-0.3,0.1l-0.3,0.1l-0.3,0.1l-0.3,0.1l-0.3,0.1l-0.3,0.1l-0.3,0.1l-0.3,0.1l-0.3,0.1l-0.3,0.1l-0.3,0.1l-0.3,0.1l-0.3,0.1
				l-0.3,0.1l-0.3,0.1l-0.3,0.1l-0.3,0.1l-0.3,0.1l-0.3,0.1l-0.3,0.1l-0.3,0.1l-0.3,0.1l-0.3,0.1l-0.3,0.1l-0.3,0.1l-0.3,0.1
				l-0.3,0.1l-0.3,0.1l-0.3,0.1l-0.3,0.1l-0.3,0.1l-0.3,0.1l-0.3,0.1l-0.3,0.1l-0.3,0.1l-0.3,0.1l-0.3,0.1l-0.3,0.1l-0.3,0.1
				l-0.3,0.1l-0.3,0.1l-0.3,0.1l-0.3,0.1l-0.3,0.1l-0.3,0.1l-0.3,0.1l-0.3,0.1l-0.3,0.1l-0.3,0.1l-0.3,0.1l-0.3,0.1l-0.3,0.1
				l-0.3,0.1l-0.3,0.1l-0.3,0.1l-0.3,0.1l-0.3,0.1l-0.3,0.1l-0.3,0.1l-0.3,0.1l-0.3,0.1l-0.3,0.1l-0.3,0.1l-0.3,0.1l-0.3,0.1
				l-0.3,0.1l-0.3,0.1l-0.3,0.1l-0.3,0.1l-0.3,0.1l-0.3,0.1l-0.3,0.1l-0.3,0.1l-0.3,0.1l-0.3,0.1l-0.3,0.1l-0.3,0.1l-0.3,0.1
				l-0.3,0.1l-0.3,0.1l-0.3,0.1l-0.3,0l-0.3,0l-0.3,0l-0.3,0l-0.3,0l-0.3,0l-0.3,0l-0.3,0l-0.3,0l-0.3,0l-0.3,0l-0.3,0l-0.3,0
				l-0.3,0l-0.3,0l-0.3,0l-0.3,0l-0.3,0l-0.3,0l-0.3,0l-0.3,0l-0.3,0l-0.3,0l-0.3,0l-0.3,0l-0.3,0l-0.3,0l-0.3,0l-0.3,0l-0.3,0
				l-0.3,0l-0.3,0l-0.3,0l-0.3,0l-0.3,0l-0.3,0l-0.3,0l-0.3,0l-0.3,0l-0.3,0l-0.3,0l-0.3,0l-0.3,0l-0.3,0l-0.3,0l-0.3,0l-0.3,0
				l-0.3,0l-0.3,0l-0.3,0l-0.3,0l-0.3,0l-0.3,0l-0.3,0l-0.3,0l-0.3,0l-0.3,0l-0.3,0l-0.3,0l-0.3,0l-0.3,0l-0.3,0l-0.3,0l-0.3,0
				l-0.3,0l-0.3,0l-0.3,0l-0.3,0l-0.3,0l-0.3,0l-0.3,0l-0.3,0l-0.3,0l-0.3,0l-0.3,0l-0.3,0l-0.3,0l-0.3,0l-0.3,0l-0.3,0l-0.3,0
				l-0.3,0l-0.3,0l-0.3,0l-0.3,0l-0.3,0l-0.3,0l-0.3,0l-0.3,0l-0.3,0l-0.3,0l-0.3,0l-0.3,0l-0.3,0l-0.3-0.1l-0.3-0.1l-0.3-0.1
				l-0.3-0.1l-0.3-0.1l-0.3-0.1l-0.3-0.1l-0.3-0.1l-0.3-0.1l-0.3-0.1l-0.3-0.1l-0.3-0.1l-0.3-0.1l-0.3-0.1l-0.3-0.1l-0.3-0.1
				l-0.3-0.1l-0.3-0.1l-0.3-0.1l-0.3-0.1l-0.3-0.1l-0.3-0.1l-0.3-0.1l-0.3-0.1l-0.3-0.1l-0.3-0.1l-0.3-0.1l-0.3-0.1l-0.3-0.1
				l-0.3-0.1l-0.3-0.1l-0.3-0.1l-0.3-0.1l-0.3-0.1l-0.3-0.1l-0.3-0.1l-0.3-0.1l-0.3-0.1l-0.3-0.1l-0.3-0.1l-0.3-0.1l-0.3-0.1
				l-0.3-0.1l-0.3-0.1l-0.3-0.1l-0.3-0.1l-0.3-0.1l-0.3-0.1l-0.3-0.1l-0.3-0.1l-0.3-0.1l-0.3-0.1l-0.3-0.1l-0.3-0.1l-0.3-0.1
				l-0.3-0.1l-0.3-0.1l-0.3-0.1l-0.3-0.1l-0.3-0.1l-0.3-0.1l-0.3-0.1l-0.3-0.1l-0.3-0.1l-0.3-0.1l-0.3-0.1l-0.3-0.1l-0.3-0.1
				l-0.3-0.1l-0.3-0.1l-0.3-0.1l-0.3-0.1l-0.3-0.1l-0.3-0.1l-0.3-0.1l-0.3-0.1l-0.3-0.1l-0.3-0.1L474,485l-0.3-0.1l-0.3-0.1
				l-0.3-0.1l-0.3-0.1l-0.3-0.1l-0.3-0.1l-0.3-0.1l-0.3-0.1l-0.3-0.1l-0.3-0.1l-0.3-0.1l-0.3-0.1l-0.3-0.1l-0.3-0.1l-0.3-0.1
				l-0.3-0.1l-0.3-0.1l-0.3-0.1l-0.3-0.1l-0.3-0.1l-0.3-0.1l-0.3-0.1l-0.3-0.1l-0.3-0.1l-0.3-0.1l-0.3-0.1l-0.3-0.1l-0.3-0.1
				l-0.3-0.2l-0.3-0.2l-0.3-0.2l-0.3-0.2l-0.3-0.2l-0.3-0.2l-0.3-0.2l-0.3-0.2l-0.3-0.2l-0.3-0.2l-0.3-0.2l-0.3-0.2l-0.3-0.2
				l-0.3-0.2l-0.3-0.2l-0.3-0.2l-0.3-0.2l-0.3-0.2l-0.3-0.2l-0.3-0.2l-0.3-0.2l-0.3-0.2l-0.3-0.2l-0.3-0.2l-0.3-0.2l-0.3-0.2
				l-0.3-0.2l-0.3-0.2l-0.3-0.2l-0.3-0.2l-0.3-0.2l-0.3-0.2l-0.3-0.2l-0.3-0.2l-0.3-0.2l-0.3-0.2l-0.3-0.2l-0.3-0.2l-0.3-0.2
				l-0.3-0.2l-0.3-0.2l-0.3-0.2l-0.3-0.2l-0.3-0.2l-0.3-0.2l-0.3-0.2l-0.3-0.2l-0.3-0.2l-0.3-0.2l-0.3-0.2l-0.3-0.2l-0.3-0.2
				l-0.3-0.2l-0.3-0.2l-0.3-0.2l-0.3-0.2l-0.3-0.2l-0.3-0.2l-0.3-0.2l-0.3-0.2l-0.3-0.2l-0.3-0.2l-0.3-0.2l-0.3-0.2l-0.3-0.2
				l-0.3-0.2l-0.2-0.2l-0.2-0.2l-0.2-0.2l-0.2-0.2l-0.2-0.2l-0.2-0.2l-0.2-0.2l-0.2-0.2l-0.2-0.2l-0.2-0.2l-0.2-0.2L445,467
				l-0.2-0.2l-0.2-0.2l-0.2-0.2l-0.2-0.2l-0.2-0.2l-0.2-0.2l-0.2-0.2l-0.2-0.2l-0.2-0.2l-0.2-0.2l-0.2-0.2l-0.2-0.2l-0.2-0.2
				l-0.2-0.2l-0.2-0.2l-0.2-0.2l-0.2-0.2l-0.2-0.2l-0.2-0.2l-0.2-0.2l-0.2-0.2l-0.2-0.2l-0.2-0.2l-0.2-0.2l-0.2-0.2l-0.2-0.2
				l-0.2-0.2l-0.2-0.2l-0.2-0.2l-0.2-0.2l-0.2-0.2l-0.2-0.2l-0.2-0.2l-0.2-0.2l-0.2-0.2l-0.2-0.2l-0.2-0.2l-0.2-0.2l-0.2-0.2
				l-0.2-0.2l-0.2-0.2l-0.2-0.2l-0.2-0.2l-0.2-0.2l-0.2-0.2l-0.2-0.2l-0.2-0.2l-0.2-0.2l-0.2-0.2l-0.2-0.2l-0.2-0.2l-0.2-0.2
				l-0.2-0.2l-0.2-0.2l-0.2-0.2l-0.2-0.2l-0.2-0.2l-0.2-0.2l-0.2-0.2l-0.2-0.2l-0.2-0.3l-0.2-0.3l-0.2-0.3l-0.2-0.3l-0.2-0.3
				l-0.2-0.3l-0.2-0.3l-0.2-0.3l-0.2-0.3l-0.2-0.3l-0.2-0.3l-0.2-0.3l-0.2-0.3l-0.2-0.3l-0.2-0.3l-0.2-0.3l-0.2-0.3l-0.2-0.3
				l-0.2-0.3l-0.2-0.3l-0.2-0.3l-0.2-0.3l-0.2-0.3L427,447l-0.2-0.3l-0.2-0.3l-0.2-0.3l-0.2-0.3l-0.2-0.3l-0.2-0.3l-0.2-0.3
				l-0.2-0.3l-0.2-0.3l-0.2-0.3l-0.2-0.3l-0.2-0.3l-0.2-0.3l-0.2-0.3l-0.2-0.3l-0.2-0.3l-0.2-0.3l-0.2-0.3l-0.2-0.3l-0.2-0.3
				l-0.2-0.3l-0.2-0.3l-0.2-0.3l-0.2-0.3l-0.2-0.3l-0.2-0.3l-0.2-0.3l-0.2-0.3l-0.2-0.3l-0.2-0.3l-0.2-0.3l-0.2-0.3l-0.2-0.3
				l-0.2-0.3l-0.2-0.3l-0.2-0.3l-0.2-0.3l-0.2-0.3l-0.2-0.3l-0.2-0.3l-0.2-0.3l-0.2-0.3l-0.1-0.3l-0.1-0.3l-0.1-0.3l-0.1-0.3
				l-0.1-0.3l-0.1-0.3l-0.1-0.3l-0.1-0.3l-0.1-0.3l-0.1-0.3l-0.1-0.3l-0.1-0.3l-0.1-0.3l-0.1-0.3l-0.1-0.3l-0.1-0.3l-0.1-0.3
				l-0.1-0.3l-0.1-0.3l-0.1-0.3l-0.1-0.3l-0.1-0.3l-0.1-0.3l-0.1-0.3l-0.1-0.3l-0.1-0.3l-0.1-0.3l-0.1-0.3l-0.1-0.3l-0.1-0.3
				l-0.1-0.3l-0.1-0.3l-0.1-0.3l-0.1-0.3l-0.1-0.3l-0.1-0.3l-0.1-0.3l-0.1-0.3l-0.1-0.3l-0.1-0.3l-0.1-0.3l-0.1-0.3l-0.1-0.3
				l-0.1-0.3l-0.1-0.3l-0.1-0.3l-0.1-0.3l-0.1-0.3l-0.1-0.3l-0.1-0.3l-0.1-0.3l-0.1-0.3l-0.1-0.3l-0.1-0.3l-0.1-0.3l-0.1-0.3
				l-0.1-0.3l-0.1-0.3l-0.1-0.3l-0.1-0.3l-0.1-0.3l-0.1-0.3l-0.1-0.3l-0.1-0.3l-0.1-0.3l-0.1-0.3l-0.1-0.3l-0.1-0.3l-0.1-0.3
				l-0.1-0.3l-0.1-0.3l-0.1-0.3l-0.1-0.3l-0.1-0.3l-0.1-0.3l-0.1-0.3l-0.1-0.3l-0.1-0.3l-0.1-0.3l-0.1-0.3l-0.1-0.3l-0.1-0.3
				l-0.1-0.3l-0.1-0.3l-0.1-0.3l-0.1-0.3l-0.1-0.3l-0.1-0.3l-0.1-0.3l-0.1-0.3l-0.1-0.3l-0.1-0.3l-0.1-0.3l-0.1-0.3l-0.1-0.3
				l-0.1-0.3l-0.1-0.3l-0.1-0.3l-0.1-0.3l-0.1-0.3l-0.1-0.3l-0.1-0.3l-0.1-0.3l-0.1-0.3l-0.1-0.3l-0.1-0.3l-0.1-0.3l0-0.3l0-0.3
				l0-0.3l0-0.3l0-0.3l0-0.3l0-0.3l0-0.3l0-0.3l0-0.3l0-0.3l0-0.3l0-0.3l0-0.3l0-0.3l0-0.3l0-0.3l0-0.3l0-0.3l0-0.3l0-0.3l0-0.3
				l0-0.3l0-0.3l0-0.3l0-0.3l0-0.3l0-0.3l0-0.3l0-0.3l0-0.3l0-0.3l0-0.3l0-0.3l0-0.3l0-0.3l0-0.3l0-0.3l0-0.3l0-0.3l0-0.3l0-0.3
				l0-0.3l0-0.3l0-0.3l0-0.3l0-0.3l0-0.3l0-0.3l0-0.3l0-0.3l0-0.3l0-0.3l0-0.3l0-0.3l0-0.3l0-0.3l0-0.3l0-0.3l0-0.3l0-0.3l0-0.3
				l0-0.3l0-0.3l0-0.3l0-0.3l0-0.3l0-0.3l0-0.3l0-0.3l0-0.3l0-0.3l0-0.3l0-0.3l0-0.3l0-0.3l0-0.3l0-0.3l0-0.3l0-0.3l0-0.3l0-0.3
				l0-0.3l0-0.3l0-0.3l0-0.3l0-0.3l0-0.3l0-0.3l0-0.3l0-0.3l0-0.3l0-0.3l0-0.3l0.1-0.3l0.1-0.3l0.1-0.3l0.1-0.3l0.1-0.3l0.1-0.3
				l0.1-0.3l0.1-0.3l0.1-0.3l0.1-0.3l0.1-0.3l0.1-0.3l0.1-0.3l0.1-0.3l0.1-0.3l0.1-0.3l0.1-0.3l0.1-0.3l0.1-0.3l0.1-0.3l0.1-0.3
				l0.1-0.3l0.1-0.3l0.1-0.3l0.1-0.3l0.1-0.3l0.1-0.3l0.1-0.3l0.1-0.3l0.1-0.3l0.1-0.3l0.1-0.3l0.1-0.3l0.1-0.3l0.1-0.3l0.1-0.3
				l0.1-0.3l0.1-0.3l0.1-0.3l0.1-0.3l0.1-0.3l0.1-0.3l0.1-0.3l0.1-0.3l0.1-0.3l0.1-0.3l0.1-0.3l0.1-0.3l0.1-0.3l0.1-0.3l0.1-0.3
				l0.1-0.3l0.1-0.3l0.1-0.3l0.1-0.3l0.1-0.3l0.1-0.3l0.1-0.3l0.1-0.3l0.1-0.3l0.1-0.3l0.1-0.3l0.1-0.3l0.1-0.3l0.1-0.3l0.1-0.3
				l0.1-0.3l0.1-0.3l0.1-0.3l0.1-0.3l0.1-0.3l0.1-0.3l0.1-0.3l0.1-0.3l0.1-0.3l0.1-0.3l0.1-0.3l0.1-0.3l0.1-0.3l0.1-0.3l0.1-0.3
				l0.1-0.3l0.1-0.3l0.1-0.3l0.1-0.3l0.1-0.3l0.1-0.3l0.1-0.3l0.1-0.3l0.1-0.3l0.1-0.3l0.1-0.3l0.1-0.3l0.1-0.3l0.1-0.3l0.1-0.3
				l0.1-0.3l0.1-0.3l0.1-0.3l0.1-0.3l0.1-0.3l0.1-0.3l0.1-0.3l0.1-0.3l0.1-0.3l0.1-0.3l0.1-0.3l0.2-0.3l0.2-0.3l0.2-0.3l0.2-0.3
				l0.2-0.3l0.2-0.3l0.2-0.3l0.2-0.3l0.2-0.3l0.2-0.3l0.2-0.3l0.2-0.3l0.2-0.3l0.2-0.3l0.2-0.3l0.2-0.3l0.2-0.3l0.2-0.3l0.2-0.3
				l0.2-0.3l0.2-0.3l0.2-0.3l0.2-0.3l0.2-0.3l0.2-0.3l0.2-0.3l0.2-0.3l0.2-0.3l0.2-0.3l0.2-0.3l0.2-0.3l0.2-0.3l0.2-0.3l0.2-0.3
				l0.2-0.3l0.2-0.3l0.2-0.3l0.2-0.3l0.2-0.3l0.2-0.3l0.2-0.3l0.2-0.3l0.2-0.3l0.2-0.3l0.2-0.3l0.2-0.3l0.2-0.3l0.2-0.3l0.2-0.3
				l0.2-0.3l0.2-0.3l0.2-0.3l0.2-0.3l0.2-0.3l0.2-0.3l0.2-0.3l0.2-0.3l0.2-0.3l0.2-0.3l0.2-0.3l0.2-0.3l0.2-0.3l0.2-0.3l0.2-0.3
				l0.2-0.3l0.2-0.3l0.2-0.2l0.2-0.2l0.2-0.2l0.2-0.2l0.2-0.2l0.2-0.2l0.2-0.2l0.2-0.2l0.2-0.2l0.2-0.2l0.2-0.2l0.2-0.2l0.2-0.2
				l0.2-0.2l0.2-0.2l0.2-0.2l0.2-0.2l0.2-0.2l0.2-0.2l0.2-0.2l0.2-0.2l0.2-0.2l0.2-0.2l0.2-0.2l0.2-0.2l0.2-0.2l0.2-0.2l0.2-0.2
				l0.2-0.2l0.2-0.2l0.2-0.2l0.2-0.2l0.2-0.2l0.2-0.2l0.2-0.2l0.2-0.2l0.2-0.2l0.2-0.2l0.2-0.2l0.2-0.2l0.2-0.2l0.2-0.2l0.2-0.2
				l0.2-0.2l0.2-0.2l0.2-0.2l0.2-0.2l0.2-0.2l0.2-0.2l0.2-0.2l0.2-0.2l0.2-0.2l0.2-0.2l0.2-0.2l0.2-0.2l0.2-0.2l0.2-0.2l0.2-0.2
				l0.2-0.2l0.2-0.2l0.2-0.2l0.2-0.2l0.2-0.2l0.2-0.2l0.2-0.2l0.2-0.2l0.2-0.2l0.2-0.2l0.2-0.2l0.2-0.2l0.2-0.2l0.2-0.2l0.3-0.2
				l0.3-0.2l0.3-0.2l0.3-0.2l0.3-0.2l0.3-0.2l0.3-0.2l0.3-0.2l0.3-0.2l0.3-0.2l0.3-0.2l0.3-0.2l0.3-0.2l0.3-0.2l0.3-0.2l0.3-0.2
				l0.3-0.2l0.3-0.2l0.3-0.2l0.3-0.2l0.3-0.2l0.3-0.2l0.3-0.2l0.3-0.2l0.3-0.2l0.3-0.2l0.3-0.2l0.3-0.2l0.3-0.2l0.3-0.2l0.3-0.2
				l0.3-0.2l0.3-0.2l0.3-0.2l0.3-0.2l0.3-0.2l0.3-0.2l0.3-0.2l0.3-0.2l0.3-0.2l0.3-0.2l0.3-0.2l0.3-0.2l0.3-0.2l0.3-0.2l0.3-0.2
				l0.3-0.2l0.3-0.2l0.3-0.2l0.3-0.2l0.3-0.2l0.3-0.2l0.3-0.2l0.3-0.2l0.3-0.2l0.3-0.2l0.3-0.2l0.3-0.2l0.3-0.2l0.3-0.2l0.3-0.2
				l0.3-0.2l0.3-0.2l0.3-0.2l0.3-0.2l0.3-0.2l0.3-0.1l0.3-0.1l0.3-0.1l0.3-0.1l0.3-0.1l0.3-0.1l0.3-0.1l0.3-0.1l0.3-0.1l0.3-0.1
				l0.3-0.1l0.3-0.1l0.3-0.1l0.3-0.1l0.3-0.1l0.3-0.1l0.3-0.1l0.3-0.1l0.3-0.1l0.3-0.1l0.3-0.1l0.3-0.1l0.3-0.1l0.3-0.1l0.3-0.1
				l0.3-0.1l0.3-0.1l0.3-0.1l0.3-0.1l0.3-0.1l0.3-0.1l0.3-0.1l0.3-0.1l0.3-0.1l0.3-0.1l0.3-0.1l0.3-0.1l0.3-0.1l0.3-0.1l0.3-0.1
				l0.3-0.1l0.3-0.1l0.3-0.1l0.3-0.1l0.3-0.1l0.3-0.1l0.3-0.1l0.3-0.1l0.3-0.1l0.3-0.1l0.3-0.1l0.3-0.1l0.3-0.1l0.3-0.1l0.3-0.1
				l0.3-0.1l0.3-0.1l0.3-0.1l0.3-0.1l0.3-0.1l0.3-0.1l0.3-0.1l0.3-0.1l0.3-0.1l0.3-0.1l0.3-0.1l0.3-0.1l0.3-0.1l0.3-0.1l0.3-0.1
				l0.3-0.1l0.3-0.1l0.3-0.1l0.3-0.1l0.3-0.1l0.3-0.1l0.3-0.1l0.3-0.1l0.3-0.1l0.3-0.1l0.3-0.1l0.3-0.1l0.3-0.1l0.3-0.1l0.3-0.1
				l0.3-0.1l0.3-0.1l0.3-0.1l0.3-0.1l0.3-0.1l0.3-0.1l0.3-0.1l0.3-0.1l0.3-0.1l0.3-0.1l0.3-0.1l0.3-0.1l0.3-0.1l0.3-0.1l0.3-0.1
				l0.3-0.1l0.3-0.1l0.3-0.1l0.3-0.1l0.3-0.1l0.3-0.1l0.3-0.1l0.3,0l0.3,0l0.3,0l0.3,0l0.3,0l0.3,0l0.3,0l0.3,0l0.3,0l0.3,0l0.3,0
				l0.3,0l0.3,0l0.3,0l0.3,0l0.3,0l0.3,0l0.3,0l0.3,0l0.3,0l0.3,0l0.3,0l0.3,0l0.3,0l0.3,0l0.3,0l0.3,0l0.3,0l0.3,0l0.3,0l0.3,0
				l0.3,0l0.3,0l0.3,0l0.3,0l0.3,0l0.3,0l0.3,0l0.3,0l0.3,0l0.3,0l0.3,0l0.3,0l0.3,0l0.3,0l0.3,0l0.3,0L515.4,279.1L515.4,279.1z
				 M514.7,283.7l-0.3,0l-0.3,0l-0.3,0l-0.3,0l-0.3,0l-0.3,0l-0.3,0l-0.3,0l-0.3,0l-0.3,0l-0.3,0l-0.3,0l-0.3,0l-0.3,0l-0.3,0
				l-0.3,0l-0.3,0l-0.3,0l-0.3,0l-0.3,0l-0.3,0l-0.3,0l-0.3,0l-0.3,0l-0.3,0l-0.3,0l-0.3,0l-0.3,0l-0.3,0l-0.3,0l-0.3,0l-0.3,0
				l-0.3,0l-0.3,0l-0.3,0l-0.3,0l-0.3,0l-0.3,0l-0.3,0l-0.3,0l-0.3,0l-0.3,0l-0.3,0l-0.3,0l-0.3,0l-0.3,0l-0.3,0l-0.3,0l-0.3,0.1
				l-0.3,0.1l-0.3,0.1l-0.3,0.1l-0.3,0.1l-0.3,0.1l-0.3,0.1l-0.3,0.1l-0.3,0.1l-0.3,0.1l-0.3,0.1l-0.3,0.1l-0.3,0.1l-0.3,0.1
				l-0.3,0.1l-0.3,0.1l-0.3,0.1l-0.3,0.1l-0.3,0.1l-0.3,0.1l-0.3,0.1l-0.3,0.1l-0.3,0.1l-0.3,0.1l-0.3,0.1l-0.3,0.1l-0.3,0.1
				l-0.3,0.1l-0.3,0.1l-0.3,0.1l-0.3,0.1l-0.3,0.1l-0.3,0.1l-0.3,0.1l-0.3,0.1l-0.3,0.1l-0.3,0.1l-0.3,0.1l-0.3,0.1l-0.3,0.1
				l-0.3,0.1l-0.3,0.1l-0.3,0.1l-0.3,0.1l-0.3,0.1l-0.3,0.1l-0.3,0.1l-0.3,0.1l-0.3,0.1l-0.3,0.1l-0.3,0.1l-0.3,0.1l-0.3,0.1
				l-0.3,0.1l-0.3,0.1l-0.3,0.1l-0.3,0.1l-0.3,0.1l-0.3,0.1l-0.3,0.1l-0.3,0.1l-0.3,0.1l-0.3,0.1l-0.3,0.1l-0.3,0.1l-0.3,0.1
				l-0.3,0.1l-0.3,0.1l-0.3,0.1l-0.3,0.1l-0.3,0.1l-0.3,0.1l-0.3,0.1l-0.3,0.1l-0.3,0.1l-0.3,0.1l-0.3,0.1l-0.3,0.1l-0.3,0.1
				l-0.3,0.1l-0.3,0.1l-0.3,0.1l-0.3,0.1l-0.3,0.1l-0.3,0.1l-0.3,0.1l-0.3,0.1l-0.3,0.1l-0.3,0.1l-0.3,0.1l-0.3,0.1l-0.3,0.1
				l-0.3,0.1l-0.3,0.1l-0.3,0.1l-0.3,0.1l-0.3,0.1l-0.3,0.1l-0.3,0.1l-0.3,0.1l-0.3,0.1l-0.3,0.1l-0.3,0.1l-0.3,0.1l-0.3,0.1
				l-0.3,0.1l-0.3,0.1l-0.3,0.1l-0.3,0.1l-0.3,0.1l-0.3,0.1l-0.3,0.1l-0.3,0.1l-0.3,0.2l-0.3,0.2l-0.3,0.2l-0.3,0.2l-0.3,0.2
				l-0.3,0.2l-0.3,0.2l-0.3,0.2l-0.3,0.2l-0.3,0.2l-0.3,0.2l-0.3,0.2l-0.3,0.2l-0.3,0.2l-0.3,0.2l-0.3,0.2l-0.3,0.2l-0.3,0.2
				l-0.3,0.2l-0.3,0.2l-0.3,0.2l-0.3,0.2l-0.3,0.2l-0.3,0.2l-0.3,0.2l-0.3,0.2l-0.3,0.2l-0.3,0.2l-0.3,0.2l-0.3,0.2l-0.3,0.2
				l-0.3,0.2l-0.3,0.2l-0.3,0.2l-0.3,0.2l-0.3,0.2l-0.3,0.2l-0.3,0.2l-0.3,0.2l-0.3,0.2l-0.2,0.2l-0.2,0.2l-0.2,0.2l-0.2,0.2
				l-0.2,0.2l-0.2,0.2l-0.2,0.2l-0.2,0.2l-0.2,0.2l-0.2,0.2l-0.2,0.2l-0.2,0.2l-0.2,0.2l-0.2,0.2l-0.2,0.2l-0.2,0.2l-0.2,0.2
				l-0.2,0.2l-0.2,0.2l-0.2,0.2l-0.2,0.2l-0.2,0.2l-0.2,0.2l-0.2,0.2l-0.2,0.2l-0.2,0.2l-0.2,0.2l-0.2,0.2l-0.2,0.2l-0.2,0.2
				l-0.2,0.2l-0.2,0.2l-0.2,0.2l-0.2,0.2l-0.2,0.2l-0.2,0.2l-0.2,0.2l-0.2,0.2l-0.2,0.2l-0.2,0.2l-0.2,0.2l-0.2,0.2l-0.2,0.2
				l-0.2,0.2l-0.2,0.2l-0.2,0.2l-0.2,0.2l-0.2,0.2l-0.2,0.2l-0.2,0.2l-0.2,0.2l-0.2,0.2l-0.2,0.2l-0.2,0.2l-0.2,0.2l-0.2,0.2
				l-0.2,0.2l-0.2,0.2l-0.2,0.2l-0.2,0.2l-0.2,0.2l-0.2,0.2l-0.2,0.2l-0.2,0.2l-0.2,0.2l-0.2,0.2l-0.2,0.2l-0.2,0.2l-0.2,0.2
				l-0.2,0.2l-0.2,0.2l-0.2,0.2l-0.2,0.2l-0.2,0.2l-0.2,0.2l-0.2,0.2l-0.2,0.2l-0.2,0.2l-0.2,0.2l-0.2,0.2l-0.2,0.2l-0.2,0.2
				l-0.2,0.2l-0.2,0.2l-0.2,0.2L436,321l-0.2,0.2l-0.2,0.2l-0.2,0.2l-0.2,0.2l-0.2,0.2l-0.2,0.2l-0.2,0.2l-0.2,0.2l-0.2,0.2
				l-0.2,0.2l-0.2,0.2l-0.2,0.2l-0.2,0.2l-0.2,0.2l-0.2,0.2l-0.2,0.2l-0.2,0.2l-0.2,0.2l-0.2,0.2l-0.2,0.2l-0.2,0.2l-0.2,0.2
				l-0.2,0.3l-0.2,0.3l-0.2,0.3l-0.2,0.3l-0.2,0.3l-0.2,0.3l-0.2,0.3l-0.2,0.3l-0.2,0.3l-0.2,0.3l-0.2,0.3l-0.2,0.3l-0.2,0.3
				l-0.2,0.3l-0.2,0.3l-0.2,0.3l-0.2,0.3l-0.2,0.3l-0.2,0.3l-0.2,0.3l-0.2,0.3l-0.2,0.3l-0.2,0.3l-0.2,0.3l-0.2,0.3l-0.2,0.3
				l-0.2,0.3l-0.2,0.3l-0.2,0.3l-0.2,0.3l-0.2,0.3l-0.2,0.3l-0.2,0.3l-0.2,0.3l-0.2,0.3l-0.2,0.3l-0.2,0.3l-0.2,0.3l-0.2,0.3
				l-0.2,0.3l-0.1,0.3l-0.1,0.3l-0.1,0.3l-0.1,0.3l-0.1,0.3l-0.1,0.3l-0.1,0.3l-0.1,0.3l-0.1,0.3l-0.1,0.3l-0.1,0.3l-0.1,0.3
				l-0.1,0.3l-0.1,0.3l-0.1,0.3l-0.1,0.3l-0.1,0.3l-0.1,0.3l-0.1,0.3l-0.1,0.3l-0.1,0.3l-0.1,0.3l-0.1,0.3l-0.1,0.3l-0.1,0.3
				l-0.1,0.3l-0.1,0.3l-0.1,0.3l-0.1,0.3l-0.1,0.3l-0.1,0.3l-0.1,0.3l-0.1,0.3l-0.1,0.3l-0.1,0.3l-0.1,0.3l-0.1,0.3l-0.1,0.3
				l-0.1,0.3L420,348l-0.1,0.3l-0.1,0.3l-0.1,0.3l-0.1,0.3l-0.1,0.3l-0.1,0.3l-0.1,0.3l-0.1,0.3l-0.1,0.3l-0.1,0.3l-0.1,0.3
				l-0.1,0.3l-0.1,0.3l-0.1,0.3l-0.1,0.3l-0.1,0.3l-0.1,0.3l-0.1,0.3l-0.1,0.3l-0.1,0.3l-0.1,0.3l-0.1,0.3l-0.1,0.3l-0.1,0.3
				l-0.1,0.3l-0.1,0.3l-0.1,0.3l-0.1,0.3l-0.1,0.3l-0.1,0.3l-0.1,0.3l-0.1,0.3l-0.1,0.3l-0.1,0.3l-0.1,0.3l-0.1,0.3l-0.1,0.3
				l-0.1,0.3l-0.1,0.3l-0.1,0.3l-0.1,0.3l-0.1,0.3l-0.1,0.3l-0.1,0.3l-0.1,0.3l-0.1,0.3l-0.1,0.3l-0.1,0.3l-0.1,0.3l-0.1,0.3
				l-0.1,0.3l-0.1,0.3l-0.1,0.3l-0.1,0.3l-0.1,0.3l-0.1,0.3l-0.1,0.3l-0.1,0.3l-0.1,0.3l-0.1,0.3l-0.1,0.3l-0.1,0.3l-0.1,0.3
				l-0.1,0.3l-0.1,0.3l-0.1,0.3l-0.1,0.3l-0.1,0.3l-0.1,0.3l-0.1,0.3l-0.1,0.3l-0.1,0.3l-0.1,0.3l0,0.3l0,0.3l0,0.3l0,0.3l0,0.3
				l0,0.3l0,0.3l0,0.3l0,0.3l0,0.3l0,0.3l0,0.3l0,0.3l0,0.3l0,0.3l0,0.3l0,0.3l0,0.3l0,0.3l0,0.3l0,0.3l0,0.3l0,0.3l0,0.3l0,0.3
				l0,0.3l0,0.3l0,0.3l0,0.3l0,0.3l0,0.3l0,0.3l0,0.3l0,0.3l0,0.3l0,0.3l0,0.3l0,0.3l0,0.3l0,0.3l0,0.3l0,0.3l0,0.3l0,0.3l0,0.3
				l0,0.3l0,0.3l0,0.3l0,0.3l0,0.3l0,0.3l0,0.3l0,0.3l0,0.3l0,0.3l0,0.3l0,0.3l0,0.3l0,0.3l0,0.3l0,0.3l0,0.3l0,0.3l0,0.3l0,0.3
				l0,0.3l0,0.3l0,0.3l0,0.3l0,0.3l0,0.3l0,0.3l0,0.3l0,0.3l0,0.3l0,0.3l0,0.3l0,0.3l0,0.3l0,0.3l0,0.3l0,0.3l0,0.3l0,0.3l0,0.3
				l0,0.3l0,0.3l0,0.3l0,0.3l0,0.3l0,0.3l0,0.3l0,0.3l0,0.3l0,0.3l0,0.3l0,0.3l0,0.3l0.1,0.3l0.1,0.3l0.1,0.3l0.1,0.3l0.1,0.3
				l0.1,0.3l0.1,0.3l0.1,0.3l0.1,0.3l0.1,0.3l0.1,0.3l0.1,0.3l0.1,0.3l0.1,0.3l0.1,0.3l0.1,0.3l0.1,0.3l0.1,0.3l0.1,0.3l0.1,0.3
				l0.1,0.3l0.1,0.3l0.1,0.3l0.1,0.3l0.1,0.3l0.1,0.3l0.1,0.3l0.1,0.3l0.1,0.3l0.1,0.3l0.1,0.3l0.1,0.3l0.1,0.3l0.1,0.3l0.1,0.3
				l0.1,0.3l0.1,0.3l0.1,0.3l0.1,0.3l0.1,0.3l0.1,0.3l0.1,0.3l0.1,0.3l0.1,0.3l0.1,0.3l0.1,0.3l0.1,0.3l0.1,0.3l0.1,0.3l0.1,0.3
				l0.1,0.3l0.1,0.3l0.1,0.3l0.1,0.3l0.1,0.3l0.1,0.3l0.1,0.3l0.1,0.3l0.1,0.3l0.1,0.3l0.1,0.3l0.1,0.3l0.1,0.3l0.1,0.3l0.1,0.3
				l0.1,0.3l0.1,0.3l0.1,0.3l0.1,0.3l0.1,0.3l0.1,0.3l0.1,0.3l0.1,0.3l0.1,0.3l0.1,0.3l0.1,0.3l0.1,0.3l0.1,0.3l0.1,0.3l0.1,0.3
				l0.1,0.3l0.1,0.3l0.1,0.3l0.1,0.3l0.1,0.3l0.1,0.3l0.1,0.3l0.1,0.3l0.1,0.3l0.1,0.3l0.1,0.3l0.1,0.3l0.1,0.3l0.1,0.3l0.1,0.3
				l0.1,0.3l0.1,0.3l0.1,0.3l0.1,0.3l0.1,0.3l0.1,0.3l0.1,0.3l0.1,0.3l0.1,0.3l0.1,0.3l0.1,0.3l0.1,0.3l0.1,0.3l0.1,0.3l0.1,0.3
				l0.1,0.3l0.1,0.3l0.1,0.3l0.2,0.3l0.2,0.3l0.2,0.3l0.2,0.3l0.2,0.3l0.2,0.3l0.2,0.3l0.2,0.3l0.2,0.3l0.2,0.3l0.2,0.3l0.2,0.3
				l0.2,0.3l0.2,0.3l0.2,0.3l0.2,0.3l0.2,0.3l0.2,0.3l0.2,0.3l0.2,0.3l0.2,0.3l0.2,0.3l0.2,0.3l0.2,0.3l0.2,0.3l0.2,0.3l0.2,0.3
				l0.2,0.3l0.2,0.3l0.2,0.3l0.2,0.3l0.2,0.3l0.2,0.3l0.2,0.3l0.2,0.3l0.2,0.3l0.2,0.3l0.2,0.3l0.2,0.3l0.2,0.3l0.2,0.2l0.2,0.2
				l0.2,0.2l0.2,0.2l0.2,0.2l0.2,0.2l0.2,0.2l0.2,0.2l0.2,0.2l0.2,0.2l0.2,0.2l0.2,0.2l0.2,0.2l0.2,0.2l0.2,0.2l0.2,0.2l0.2,0.2
				l0.2,0.2l0.2,0.2l0.2,0.2l0.2,0.2l0.2,0.2l0.2,0.2l0.2,0.2l0.2,0.2l0.2,0.2l0.2,0.2l0.2,0.2l0.2,0.2l0.2,0.2l0.2,0.2l0.2,0.2
				l0.2,0.2l0.2,0.2l0.2,0.2l0.2,0.2l0.2,0.2l0.2,0.2l0.2,0.2l0.2,0.2l0.2,0.2l0.2,0.2l0.2,0.2l0.2,0.2l0.2,0.2l0.2,0.2l0.2,0.2
				l0.2,0.2l0.2,0.2l0.2,0.2l0.2,0.2l0.2,0.2l0.2,0.2l0.2,0.2l0.2,0.2l0.2,0.2l0.2,0.2l0.2,0.2l0.2,0.2l0.2,0.2l0.2,0.2l0.2,0.2
				l0.2,0.2l0.2,0.2l0.2,0.2l0.2,0.2l0.2,0.2l0.2,0.2l0.2,0.2l0.2,0.2l0.2,0.2l0.2,0.2l0.2,0.2l0.2,0.2l0.2,0.2l0.2,0.2l0.2,0.2
				l0.2,0.2l0.2,0.2l0.2,0.2l0.2,0.2l0.2,0.2l0.2,0.2l0.2,0.2l0.2,0.2l0.2,0.2l0.2,0.2l0.2,0.2l0.2,0.2l0.2,0.2l0.2,0.2l0.2,0.2
				l0.2,0.2l0.2,0.2l0.2,0.2l0.2,0.2l0.2,0.2l0.2,0.2l0.2,0.2l0.2,0.2l0.2,0.2l0.2,0.2l0.2,0.2l0.2,0.2l0.2,0.2l0.2,0.2l0.2,0.2
				l0.2,0.2l0.3,0.2l0.3,0.2l0.3,0.2l0.3,0.2l0.3,0.2l0.3,0.2l0.3,0.2l0.3,0.2l0.3,0.2l0.3,0.2l0.3,0.2l0.3,0.2l0.3,0.2l0.3,0.2
				l0.3,0.2l0.3,0.2l0.3,0.2l0.3,0.2l0.3,0.2l0.3,0.2l0.3,0.2l0.3,0.2l0.3,0.2l0.3,0.2l0.3,0.2l0.3,0.2l0.3,0.2l0.3,0.2l0.3,0.2
				l0.3,0.2l0.3,0.2l0.3,0.2l0.3,0.2l0.3,0.2l0.3,0.2l0.3,0.2l0.3,0.2l0.3,0.2l0.3,0.2l0.3,0.1l0.3,0.1l0.3,0.1l0.3,0.1l0.3,0.1
				l0.3,0.1l0.3,0.1l0.3,0.1l0.3,0.1l0.3,0.1l0.3,0.1l0.3,0.1l0.3,0.1l0.3,0.1l0.3,0.1l0.3,0.1l0.3,0.1l0.3,0.1l0.3,0.1l0.3,0.1
				l0.3,0.1l0.3,0.1l0.3,0.1l0.3,0.1l0.3,0.1l0.3,0.1l0.3,0.1l0.3,0.1l0.3,0.1l0.3,0.1l0.3,0.1l0.3,0.1l0.3,0.1l0.3,0.1l0.3,0.1
				l0.3,0.1l0.3,0.1l0.3,0.1l0.3,0.1l0.3,0.1l0.3,0.1l0.3,0.1l0.3,0.1l0.3,0.1l0.3,0.1l0.3,0.1l0.3,0.1l0.3,0.1l0.3,0.1l0.3,0.1
				l0.3,0.1l0.3,0.1l0.3,0.1l0.3,0.1l0.3,0.1l0.3,0.1l0.3,0.1l0.3,0.1l0.3,0.1l0.3,0.1l0.3,0.1l0.3,0.1l0.3,0.1l0.3,0.1l0.3,0.1
				l0.3,0.1l0.3,0.1l0.3,0.1l0.3,0.1l0.3,0.1l0.3,0.1l0.3,0.1l0.3,0.1l0.3,0.1l0.3,0.1l0.3,0.1l0.3,0.1l0.3,0.1l0.3,0.1l0.3,0.1
				l0.3,0.1l0.3,0.1l0.3,0.1l0.3,0.1l0.3,0.1l0.3,0.1l0.3,0.1l0.3,0.1l0.3,0.1l0.3,0.1l0.3,0.1l0.3,0.1l0.3,0.1l0.3,0.1l0.3,0.1
				l0.3,0.1l0.3,0.1l0.3,0.1l0.3,0.1l0.3,0.1l0.3,0.1l0.3,0.1l0.3,0.1l0.3,0.1l0.3,0.1l0.3,0.1l0.3,0.1l0.3,0.1l0.3,0.1l0.3,0.1
				l0.3,0.1l0.3,0.1l0.3,0.1l0.3,0.1l0.3,0l0.3,0l0.3,0l0.3,0l0.3,0l0.3,0l0.3,0l0.3,0l0.3,0l0.3,0l0.3,0l0.3,0l0.3,0l0.3,0l0.3,0
				l0.3,0l0.3,0l0.3,0l0.3,0l0.3,0l0.3,0l0.3,0l0.3,0l0.3,0l0.3,0l0.3,0l0.3,0l0.3,0l0.3,0l0.3,0l0.3,0l0.3,0l0.3,0l0.3,0l0.3,0
				l0.3,0l0.3,0l0.3,0l0.3,0l0.3,0l0.3,0l0.3,0l0.3,0l0.3,0l0.3,0l0.3,0l0.3,0l0.3,0l0.3,0l0.3,0l0.3,0l0.3,0l0.3,0l0.3,0l0.3,0
				l0.3,0l0.3,0l0.3,0l0.3,0l0.3,0l0.3,0l0.3,0l0.3,0l0.3,0l0.3,0l0.3,0l0.3,0l0.3,0l0.3,0l0.3,0l0.3,0l0.3,0l0.3,0l0.3,0l0.3,0
				l0.3,0l0.3,0l0.3,0l0.3,0l0.3,0l0.3,0l0.3,0l0.3,0l0.3,0l0.3,0l0.3,0l0.3,0l0.3,0l0.3,0l0.3,0l0.3,0l0.3,0l0.3,0l0.3,0l0.3,0
				l0.3,0l0.3,0l0.3,0l0.3-0.1l0.3-0.1l0.3-0.1l0.3-0.1l0.3-0.1l0.3-0.1l0.3-0.1l0.3-0.1l0.3-0.1l0.3-0.1l0.3-0.1l0.3-0.1l0.3-0.1
				l0.3-0.1l0.3-0.1l0.3-0.1l0.3-0.1l0.3-0.1l0.3-0.1l0.3-0.1l0.3-0.1l0.3-0.1l0.3-0.1l0.3-0.1l0.3-0.1l0.3-0.1l0.3-0.1l0.3-0.1
				l0.3-0.1l0.3-0.1l0.3-0.1l0.3-0.1l0.3-0.1l0.3-0.1l0.3-0.1l0.3-0.1l0.3-0.1l0.3-0.1l0.3-0.1l0.3-0.1l0.3-0.1l0.3-0.1l0.3-0.1
				l0.3-0.1l0.3-0.1l0.3-0.1l0.3-0.1l0.3-0.1l0.3-0.1l0.3-0.1l0.3-0.1l0.3-0.1l0.3-0.1l0.3-0.1l0.3-0.1l0.3-0.1l0.3-0.1l0.3-0.1
				l0.3-0.1l0.3-0.1l0.3-0.1l0.3-0.1l0.3-0.1l0.3-0.1l0.3-0.1l0.3-0.1l0.3-0.1l0.3-0.1l0.3-0.1l0.3-0.1l0.3-0.1l0.3-0.1l0.3-0.1
				l0.3-0.1l0.3-0.1l0.3-0.1l0.3-0.1l0.3-0.1l0.3-0.1l0.3-0.1l0.3-0.1l0.3-0.1l0.3-0.1l0.3-0.1l0.3-0.1l0.3-0.1l0.3-0.1l0.3-0.1
				l0.3-0.1l0.3-0.1l0.3-0.1l0.3-0.1l0.3-0.1l0.3-0.1l0.3-0.1l0.3-0.1l0.3-0.1l0.3-0.1l0.3-0.1l0.3-0.1l0.3-0.1l0.3-0.1l0.3-0.1
				l0.3-0.1l0.3-0.1l0.3-0.1l0.3-0.1l0.3-0.1l0.3-0.1l0.3-0.1l0.3-0.1l0.3-0.1l0.3-0.1l0.3-0.1l0.3-0.2l0.3-0.2l0.3-0.2l0.3-0.2
				l0.3-0.2l0.3-0.2l0.3-0.2l0.3-0.2l0.3-0.2l0.3-0.2l0.3-0.2l0.3-0.2l0.3-0.2l0.3-0.2l0.3-0.2l0.3-0.2l0.3-0.2l0.3-0.2l0.3-0.2
				l0.3-0.2l0.3-0.2l0.3-0.2l0.3-0.2l0.3-0.2l0.3-0.2l0.3-0.2l0.3-0.2l0.3-0.2l0.3-0.2l0.3-0.2l0.3-0.2l0.3-0.2l0.3-0.2l0.3-0.2
				l0.3-0.2l0.3-0.2l0.3-0.2l0.3-0.2l0.2-0.2l0.3-0.2l0.2-0.2l0.2-0.2l0.2-0.2l0.2-0.2l0.2-0.2l0.2-0.2l0.2-0.2l0.2-0.2l0.2-0.2
				l0.2-0.2l0.2-0.2l0.2-0.2l0.2-0.2l0.2-0.2l0.2-0.2l0.2-0.2l0.2-0.2l0.2-0.2l0.2-0.2l0.2-0.2l0.2-0.2l0.2-0.2l0.2-0.2l0.2-0.2
				l0.2-0.2l0.2-0.2l0.2-0.2l0.2-0.2l0.2-0.2l0.2-0.2l0.2-0.2l0.2-0.2l0.2-0.2l0.2-0.2l0.2-0.2l0.2-0.2l0.2-0.2l0.2-0.2l0.2-0.2
				l0.2-0.2l0.2-0.2l0.2-0.2l0.2-0.2l0.2-0.2l0.2-0.2l0.2-0.2l0.2-0.2l0.2-0.2l0.2-0.2l0.2-0.2l0.2-0.2l0.2-0.2l0.2-0.2l0.2-0.2
				l0.2-0.2l0.2-0.2l0.2-0.2l0.2-0.2l0.2-0.2l0.2-0.2l0.2-0.2l0.2-0.2l0.2-0.2l0.2-0.2l0.2-0.2l0.2-0.2l0.2-0.2l0.2-0.2l0.2-0.2
				l0.2-0.2l0.2-0.2l0.2-0.2l0.2-0.2l0.2-0.2l0.2-0.2l0.2-0.2l0.2-0.2l0.2-0.2l0.2-0.2l0.2-0.2l0.2-0.2l0.2-0.2l0.2-0.2l0.2-0.2
				l0.2-0.2l0.2-0.2l0.2-0.2l0.2-0.2l0.2-0.2l0.2-0.2l0.2-0.2l0.2-0.2l0.2-0.2l0.2-0.2l0.2-0.2l0.2-0.2l0.2-0.2l0.2-0.2l0.2-0.2
				l0.2-0.2l0.2-0.2l0.2-0.2l0.2-0.2l0.2-0.2l0.2-0.2l0.2-0.2l0.2-0.2l0.2-0.3l0.2-0.3l0.2-0.3l0.2-0.3l0.2-0.3l0.2-0.3l0.2-0.3
				l0.2-0.3l0.2-0.3l0.2-0.3l0.2-0.3l0.2-0.3l0.2-0.3l0.2-0.3l0.2-0.3l0.2-0.3l0.2-0.3l0.2-0.3l0.2-0.3l0.2-0.3l0.2-0.3l0.2-0.3
				l0.2-0.3l0.2-0.3l0.2-0.3l0.2-0.3l0.2-0.3l0.2-0.3l0.2-0.3l0.2-0.3l0.2-0.3l0.2-0.3l0.2-0.3l0.2-0.3l0.2-0.3l0.2-0.3l0.2-0.3
				l0.2-0.3l0.2-0.3l0.2-0.3l0.1-0.3l0.1-0.3l0.1-0.3l0.1-0.3l0.1-0.3l0.1-0.3l0.1-0.3l0.1-0.3l0.1-0.3l0.1-0.3l0.1-0.3l0.1-0.3
				l0.1-0.3l0.1-0.3l0.1-0.3l0.1-0.3l0.1-0.3l0.1-0.3l0.1-0.3l0.1-0.3l0.1-0.3l0.1-0.3l0.1-0.3l0.1-0.3l0.1-0.3l0.1-0.3l0.1-0.3
				l0.1-0.3l0.1-0.3l0.1-0.3l0.1-0.3l0.1-0.3l0.1-0.3l0.1-0.3l0.1-0.3l0.1-0.3l0.1-0.3l0.1-0.3l0.1-0.3l0.1-0.3l0.1-0.3l0.1-0.3
				l0.1-0.3l0.1-0.3l0.1-0.3l0.1-0.3l0.1-0.3l0.1-0.3l0.1-0.3l0.1-0.3l0.1-0.3l0.1-0.3l0.1-0.3l0.1-0.3l0.1-0.3l0.1-0.3l0.1-0.3
				l0.1-0.3l0.1-0.3l0.1-0.3l0.1-0.3l0.1-0.3l0.1-0.3l0.1-0.3l0.1-0.3l0.1-0.3l0.1-0.3l0.1-0.3l0.1-0.3l0.1-0.3l0.1-0.3l0.1-0.3
				l0.1-0.3l0.1-0.3l0.1-0.3l0.1-0.3l0.1-0.3l0.1-0.3l0.1-0.3l0.1-0.3l0.1-0.3l0.1-0.3l0.1-0.3l0.1-0.3l0.1-0.3l0.1-0.3l0.1-0.3
				l0.1-0.3l0.1-0.3l0.1-0.3l0.1-0.3l0.1-0.3l0.1-0.3l0.1-0.3l0.1-0.3l0.1-0.3l0.1-0.3l0.1-0.3l0.1-0.3l0.1-0.3l0.1-0.3l0.1-0.3
				l0.1-0.3l0.1-0.3l0.1-0.3l0.1-0.3l0.1-0.3l0.1-0.3l0.1-0.3l0.1-0.3l0.1-0.3l0.1-0.3l0.1-0.3l0-0.3l0-0.3l0-0.3l0-0.3l0-0.3l0-0.3
				l0-0.3l0-0.3l0-0.3l0-0.3l0-0.3l0-0.3l0-0.3l0-0.3l0-0.3l0-0.3l0-0.3l0-0.3l0-0.3l0-0.3l0-0.3l0-0.3l0-0.3l0-0.3l0-0.3l0-0.3
				l0-0.3l0-0.3l0-0.3l0-0.3l0-0.3l0-0.3l0-0.3l0-0.3l0-0.3l0-0.3l0-0.3l0-0.3l0-0.3l0-0.3l0-0.3l0-0.3l0-0.3l0-0.3l0-0.3l0-0.3
				l0-0.3l0-0.3l0-0.3l0-0.3l0-0.3l0-0.3l0-0.3l0-0.3l0-0.3l0-0.3l0-0.3l0-0.3l0-0.3l0-0.3l0-0.3l0-0.3l0-0.3l0-0.3l0-0.3l0-0.3
				l0-0.3l0-0.3l0-0.3l0-0.3l0-0.3l0-0.3l0-0.3l0-0.3l0-0.3l0-0.3l0-0.3l0-0.3l0-0.3l0-0.3l0-0.3l0-0.3l0-0.3l0-0.3l0-0.3l0-0.3
				l0-0.3l0-0.3l0-0.3l0-0.3l0-0.3l0-0.3l0-0.3l0-0.3l0-0.3l0-0.3l0-0.3l0-0.3l-0.1-0.3l-0.1-0.3l-0.1-0.3l-0.1-0.3l-0.1-0.3
				l-0.1-0.3l-0.1-0.3l-0.1-0.3l-0.1-0.3l-0.1-0.3l-0.1-0.3l-0.1-0.3l-0.1-0.3l-0.1-0.3l-0.1-0.3l-0.1-0.3l-0.1-0.3l-0.1-0.3
				l-0.1-0.3l-0.1-0.3l-0.1-0.3l-0.1-0.3l-0.1-0.3l-0.1-0.3l-0.1-0.3l-0.1-0.3l-0.1-0.3l-0.1-0.3l-0.1-0.3l-0.1-0.3l-0.1-0.3
				l-0.1-0.3l-0.1-0.3l-0.1-0.3l-0.1-0.3l-0.1-0.3l-0.1-0.3l-0.1-0.3l-0.1-0.3l-0.1-0.3l-0.1-0.3l-0.1-0.3l-0.1-0.3l-0.1-0.3
				l-0.1-0.3l-0.1-0.3l-0.1-0.3l-0.1-0.3l-0.1-0.3l-0.1-0.3l-0.1-0.3l-0.1-0.3l-0.1-0.3l-0.1-0.3l-0.1-0.3L612,353l-0.1-0.3
				l-0.1-0.3l-0.1-0.3l-0.1-0.3l-0.1-0.3l-0.1-0.3l-0.1-0.3l-0.1-0.3l-0.1-0.3l-0.1-0.3l-0.1-0.3l-0.1-0.3l-0.1-0.3l-0.1-0.3
				l-0.1-0.3l-0.1-0.3l-0.1-0.3l-0.1-0.3l-0.1-0.3l-0.1-0.3l-0.1-0.3l-0.1-0.3l-0.1-0.3l-0.1-0.3l-0.1-0.3l-0.1-0.3l-0.1-0.3
				l-0.1-0.3l-0.1-0.3l-0.1-0.3l-0.1-0.3l-0.1-0.3l-0.1-0.3l-0.1-0.3l-0.1-0.3l-0.1-0.3l-0.1-0.3l-0.1-0.3l-0.1-0.3l-0.1-0.3
				l-0.1-0.3l-0.1-0.3l-0.1-0.3l-0.1-0.3l-0.1-0.3l-0.1-0.3l-0.1-0.3l-0.1-0.3L606,339l-0.1-0.3l-0.1-0.3l-0.1-0.3l-0.1-0.3
				l-0.1-0.3l-0.1-0.3l-0.1-0.3l-0.1-0.3l-0.2-0.3l-0.2-0.3l-0.2-0.3l-0.2-0.3l-0.2-0.3l-0.2-0.3l-0.2-0.3l-0.2-0.3l-0.2-0.3
				l-0.2-0.3l-0.2-0.3l-0.2-0.3l-0.2-0.3l-0.2-0.3l-0.2-0.3l-0.2-0.3l-0.2-0.3L602,332l-0.2-0.3l-0.2-0.3l-0.2-0.3l-0.2-0.3
				l-0.2-0.3l-0.2-0.3l-0.2-0.3l-0.2-0.3l-0.2-0.3l-0.2-0.3l-0.2-0.3l-0.2-0.3l-0.2-0.3l-0.2-0.3l-0.2-0.3l-0.2-0.3l-0.2-0.3
				l-0.2-0.3l-0.2-0.3l-0.2-0.3l-0.2-0.3l-0.2-0.3l-0.2-0.2l-0.2-0.2l-0.2-0.2l-0.2-0.2l-0.2-0.2l-0.2-0.2l-0.2-0.2l-0.2-0.2
				l-0.2-0.2l-0.2-0.2l-0.2-0.2l-0.2-0.2l-0.2-0.2l-0.2-0.2l-0.2-0.2l-0.2-0.2l-0.2-0.2l-0.2-0.2l-0.2-0.2l-0.2-0.2l-0.2-0.2
				l-0.2-0.2l-0.2-0.2l-0.2-0.2l-0.2-0.2l-0.2-0.2l-0.2-0.2l-0.2-0.2l-0.2-0.2l-0.2-0.2l-0.2-0.2l-0.2-0.2l-0.2-0.2l-0.2-0.2
				l-0.2-0.2l-0.2-0.2l-0.2-0.2l-0.2-0.2l-0.2-0.2l-0.2-0.2l-0.2-0.2l-0.2-0.2l-0.2-0.2l-0.2-0.2l-0.2-0.2l-0.2-0.2l-0.2-0.2
				l-0.2-0.2l-0.2-0.2l-0.2-0.2l-0.2-0.2l-0.2-0.2l-0.2-0.2l-0.2-0.2l-0.2-0.2l-0.2-0.2l-0.2-0.2l-0.2-0.2l-0.2-0.2l-0.2-0.2
				l-0.2-0.2l-0.2-0.2l-0.2-0.2l-0.2-0.2l-0.2-0.2l-0.2-0.2l-0.2-0.2l-0.2-0.2l-0.2-0.2l-0.2-0.2l-0.2-0.2l-0.2-0.2l-0.2-0.2
				l-0.2-0.2l-0.2-0.2l-0.2-0.2l-0.2-0.2l-0.2-0.2l-0.2-0.2l-0.2-0.2l-0.2-0.2l-0.2-0.2l-0.2-0.2l-0.2-0.2l-0.2-0.2l-0.2-0.2
				l-0.2-0.2l-0.2-0.2l-0.2-0.2l-0.2-0.2l-0.2-0.2l-0.2-0.2l-0.2-0.2l-0.2-0.2l-0.2-0.2l-0.2-0.2l-0.2-0.2l-0.2-0.2l-0.2-0.2
				l-0.2-0.2l-0.2-0.2l-0.2-0.2l-0.2-0.2l-0.2-0.2l-0.2-0.2l-0.2-0.2l-0.2-0.2l-0.2-0.2l-0.3-0.2l-0.3-0.2l-0.3-0.2l-0.3-0.2
				l-0.3-0.2l-0.3-0.2l-0.3-0.2l-0.3-0.2l-0.3-0.2l-0.3-0.2L572,301l-0.3-0.2l-0.3-0.2l-0.3-0.2l-0.3-0.2l-0.3-0.2l-0.3-0.2
				l-0.3-0.2l-0.3-0.2l-0.3-0.2l-0.3-0.2l-0.3-0.2l-0.3-0.2l-0.3-0.2l-0.3-0.2l-0.3-0.2l-0.3-0.2l-0.3-0.2l-0.3-0.2l-0.3-0.2
				l-0.3-0.2l-0.3-0.2l-0.3-0.2l-0.3-0.2l-0.3-0.2l-0.3-0.2l-0.3-0.2l-0.3-0.2l-0.3-0.2l-0.3-0.1l-0.3-0.1l-0.3-0.1l-0.3-0.1
				l-0.3-0.1l-0.3-0.1l-0.3-0.1l-0.3-0.1l-0.3-0.1l-0.3-0.1l-0.3-0.1l-0.3-0.1l-0.3-0.1l-0.3-0.1l-0.3-0.1l-0.3-0.1l-0.3-0.1
				l-0.3-0.1l-0.3-0.1l-0.3-0.1l-0.3-0.1l-0.3-0.1l-0.3-0.1l-0.3-0.1l-0.3-0.1l-0.3-0.1l-0.3-0.1l-0.3-0.1l-0.3-0.1l-0.3-0.1
				l-0.3-0.1l-0.3-0.1l-0.3-0.1l-0.3-0.1l-0.3-0.1l-0.3-0.1l-0.3-0.1l-0.3-0.1l-0.3-0.1l-0.3-0.1l-0.3-0.1l-0.3-0.1l-0.3-0.1
				l-0.3-0.1l-0.3-0.1l-0.3-0.1l-0.3-0.1l-0.3-0.1l-0.3-0.1l-0.3-0.1l-0.3-0.1l-0.3-0.1l-0.3-0.1l-0.3-0.1l-0.3-0.1l-0.3-0.1
				l-0.3-0.1l-0.3-0.1l-0.3-0.1l-0.3-0.1l-0.3-0.1l-0.3-0.1l-0.3-0.1l-0.3-0.1l-0.3-0.1l-0.3-0.1l-0.3-0.1l-0.3-0.1l-0.3-0.1
				l-0.3-0.1l-0.3-0.1l-0.3-0.1l-0.3-0.1l-0.3-0.1l-0.3-0.1l-0.3-0.1l-0.3-0.1l-0.3-0.1l-0.3-0.1l-0.3-0.1l-0.3-0.1l-0.3-0.1
				l-0.3-0.1l-0.3-0.1l-0.3-0.1l-0.3-0.1l-0.3-0.1l-0.3-0.1l-0.3-0.1l-0.3-0.1l-0.3-0.1l-0.3-0.1l-0.3-0.1l-0.3-0.1l-0.3-0.1
				l-0.3-0.1l-0.3-0.1l-0.3-0.1l-0.3-0.1l-0.3-0.1l-0.3-0.1l-0.3-0.1l-0.3-0.1l-0.3-0.1l-0.3-0.1l-0.3-0.1l-0.3-0.1l-0.3-0.1
				l-0.3-0.1l-0.3-0.1l-0.3-0.1l-0.3-0.1l-0.3-0.1l-0.3-0.1l-0.3,0l-0.3,0l-0.3,0l-0.3,0l-0.3,0l-0.3,0l-0.3,0l-0.3,0l-0.3,0l-0.3,0
				l-0.3,0l-0.3,0l-0.3,0l-0.3,0l-0.3,0l-0.3,0l-0.3,0l-0.3,0l-0.3,0l-0.3,0l-0.3,0l-0.3,0l-0.3,0l-0.3,0l-0.3,0l-0.3,0l-0.3,0
				l-0.3,0l-0.3,0l-0.3,0l-0.3,0l-0.3,0l-0.3,0l-0.3,0l-0.3,0l-0.3,0l-0.3,0l-0.3,0l-0.3,0l-0.3,0l-0.3,0l-0.3,0l-0.3,0l-0.3,0
				l-0.3,0l-0.3,0l-0.3,0l-0.3,0l-0.3,0L514.7,283.7L514.7,283.7z"/>
		</defs>
		<clipPath id="SVGID_10_">
			<use xlink:href="#SVGID_9_"  style="overflow:visible;"/>
		</clipPath>
		<g transform="matrix(1 0 0 1 3.051758e-05 0)" style="clip-path:url(#SVGID_10_);">
			
				<image style="overflow:visible;" width="280" height="280" xlink:href="F6ED656F.jpg"  transform="matrix(0.77 0 0 0.7699 407.2605 278.3253)">
			</image>
		</g>
	</g>
	<g>
		<defs>
			<polygon id="SVGID_11_" points="205,311.8 205.4,311.9 205.7,312 206,312.2 206.4,312.4 206.7,312.7 207,312.9 207.4,313.1 
				207.7,313.4 208,313.6 208.3,313.9 208.6,314.1 209,314.3 209.3,314.6 209.6,314.8 209.9,315.1 210.2,315.3 210.5,315.5 
				210.9,315.8 211.2,316 211.5,316.3 211.8,316.5 212.1,316.7 212.4,317 212.7,317.2 213,317.5 213.3,317.7 213.6,318 213.9,318.2 
				214.2,318.5 214.5,318.7 214.8,319 215.1,319.2 215.4,319.5 215.6,319.7 215.9,320 216.2,320.2 216.5,320.5 216.8,320.7 
				217.1,321 217.4,321.3 217.6,321.5 217.9,321.8 218.2,322 218.5,322.3 218.7,322.5 219,322.8 219.3,323.1 219.6,323.3 
				219.8,323.6 220.1,323.8 220.4,324.1 220.6,324.4 220.9,324.6 221.2,324.9 221.4,325.2 221.7,325.4 221.9,325.7 222.2,326 
				222.4,326.2 222.7,326.5 223,326.8 223.2,327 223.5,327.3 223.7,327.6 224,327.8 224.2,328.1 224.4,328.4 224.7,328.6 
				224.9,328.9 225.2,329.2 225.4,329.5 225.7,329.7 225.9,330 226.1,330.3 226.4,330.5 226.6,330.8 226.8,331.1 227.1,331.4 
				227.3,331.7 227.5,331.9 227.7,332.2 228,332.5 228.2,332.8 228.4,333 228.6,333.3 228.8,333.6 229.1,333.9 229.3,334.2 
				229.5,334.4 229.7,334.7 229.9,335 230.1,335.3 230.4,335.6 230.6,335.9 230.8,336.1 231,336.4 231.2,336.7 231.4,337 
				231.6,337.3 231.8,337.6 232,337.9 232.2,338.1 232.4,338.4 232.6,338.7 232.8,339 233,339.3 233.2,339.6 233.3,339.9 
				233.5,340.2 233.7,340.5 233.9,340.7 234.1,341 234.3,341.3 234.5,341.6 234.6,341.9 234.8,342.2 235,342.5 235.2,342.8 
				235.4,343.1 235.5,343.4 235.7,343.7 235.9,344 236,344.3 236.2,344.6 236.4,344.9 236.6,345.2 236.7,345.5 236.9,345.8 237,346 
				237.2,346.3 237.4,346.6 237.5,346.9 237.7,347.2 237.8,347.5 238,347.8 238.1,348.1 238.3,348.4 238.5,348.7 238.6,349 
				238.8,349.3 238.9,349.6 239,349.9 239.2,350.3 239.3,350.6 239.5,350.9 239.6,351.2 239.8,351.5 239.9,351.8 240,352.1 
				240.2,352.4 240.3,352.7 240.4,353 240.6,353.3 240.7,353.6 240.8,353.9 240.9,354.2 241.1,354.5 241.2,354.8 241.3,355.1 
				241.4,355.4 241.6,355.7 241.7,356.1 241.8,356.4 241.9,356.7 242,357 242.2,357.3 242.3,357.6 242.4,357.9 242.5,358.2 
				242.6,358.5 242.7,358.8 242.8,359.1 242.9,359.5 243,359.8 243.1,360.1 243.2,360.4 243.3,360.7 243.4,361 243.5,361.3 
				243.6,361.6 243.7,361.9 243.8,362.3 243.9,362.6 244,362.9 244.1,363.2 244.2,363.5 244.3,363.8 244.3,364.1 244.4,364.4 
				244.5,364.8 244.6,365.1 244.7,365.4 244.8,365.7 244.8,366 244.9,366.3 245,366.7 245.1,367 245.1,367.3 245.2,367.6 
				245.3,367.9 245.3,368.2 245.4,368.5 245.5,368.9 245.6,369.2 245.6,369.5 245.7,369.8 245.7,370.1 245.8,370.4 245.9,370.8 
				245.9,371.1 246,371.4 246,371.7 246.1,372 246.1,372.3 246.2,372.7 246.2,373 246.3,373.3 246.3,373.6 246.4,373.9 246.4,374.3 
				246.5,374.6 246.5,374.9 246.6,375.2 246.6,375.5 246.6,375.8 246.7,376.2 246.7,376.5 246.7,376.8 246.8,377.1 246.8,377.4 
				246.8,377.8 246.9,378.1 246.9,378.4 246.9,378.7 247,379 247,379.4 247,379.7 247,380 247,380.3 247.1,380.6 247.1,381 
				247.1,381.3 247.1,381.6 247.1,381.9 247.1,382.2 247.2,382.6 247.2,382.9 247.2,383.2 247.2,383.5 247.2,383.8 247.2,384.1 
				247.2,384.5 247.2,384.8 247.2,385.1 247.2,385.4 247.2,385.7 247.2,386.1 247.2,386.4 247.2,386.7 247.2,387 247.2,387.3 
				247.2,387.7 247.2,388 247.2,388.3 247.2,388.6 247.1,388.9 247.1,389.3 247.1,389.6 247.1,389.9 247.1,390.2 247.1,390.5 
				247,390.9 247,391.2 247,391.5 247,391.8 247,392.1 246.9,392.5 246.9,392.8 246.9,393.1 246.8,393.4 246.8,393.7 246.8,394.1 
				246.7,394.4 246.7,394.7 246.7,395 246.6,395.3 246.6,395.6 246.6,396 246.5,396.3 246.5,396.6 246.4,396.9 246.4,397.2 
				246.3,397.6 246.3,397.9 246.2,398.2 246.2,398.5 246.1,398.8 246.1,399.1 246,399.5 246,399.8 245.9,400.1 245.9,400.4 
				245.8,400.7 245.8,401 245.7,401.4 245.6,401.7 245.6,402 245.5,402.3 245.4,402.6 245.4,402.9 245.3,403.3 245.2,403.6 
				245.2,403.9 245.1,404.2 245,404.5 244.9,404.8 244.9,405.1 244.8,405.5 244.7,405.8 244.6,406.1 244.6,406.4 244.5,406.7 
				244.4,407 244.3,407.3 244.2,407.7 244.1,408 244.1,408.3 244,408.6 243.9,408.9 243.8,409.2 243.7,409.5 243.6,409.8 
				243.5,410.1 243.4,410.5 243.3,410.8 243.2,411.1 243.1,411.4 243,411.7 242.9,412 242.8,412.3 242.7,412.6 242.6,412.9 
				242.5,413.2 242.4,413.6 242.3,413.9 242.2,414.2 242.1,414.5 242,414.8 241.8,415.1 241.7,415.4 241.6,415.7 241.5,416 
				241.4,416.3 241.3,416.6 241.1,416.9 241,417.2 240.9,417.5 240.8,417.9 240.6,418.2 240.5,418.5 240.4,418.8 240.3,419.1 
				240.1,419.4 240,419.7 239.9,420 239.7,420.3 239.6,420.6 239.5,420.9 239.3,421.2 239.2,421.5 239,421.8 238.9,422.1 
				238.8,422.4 238.6,422.7 238.5,423 238.3,423.3 238.2,423.6 238,423.9 237.9,424.2 237.7,424.5 237.6,424.8 237.4,425.1 
				237.3,425.4 237.1,425.7 237,426 236.8,426.3 236.7,426.6 236.5,426.9 236.3,427.2 236.2,427.5 236,427.7 235.9,428 235.7,428.3 
				235.5,428.6 235.4,428.9 235.2,429.2 235,429.5 234.8,429.8 234.7,430.1 234.5,430.4 234.3,430.7 234.2,431 234,431.3 
				233.8,431.5 233.6,431.8 233.4,432.1 233.3,432.4 233.1,432.7 232.9,433 232.7,433.3 232.5,433.6 232.3,433.8 232.1,434.1 
				232,434.4 231.8,434.7 231.6,435 231.4,435.3 231.2,435.5 231,435.8 230.8,436.1 230.6,436.4 230.4,436.7 230.2,437 230,437.2 
				229.8,437.5 229.6,437.8 229.4,438.1 229.2,438.4 229,438.6 228.8,438.9 228.6,439.2 228.4,439.5 228.2,439.7 227.9,440 
				227.7,440.3 227.5,440.6 227.3,440.8 227.1,441.1 226.9,441.4 226.6,441.7 226.4,441.9 226.2,442.2 226,442.5 225.8,442.8 
				225.5,443 225.3,443.3 225.1,443.6 224.9,443.8 224.6,444.1 224.4,444.4 224.2,444.6 223.9,444.9 223.7,445.2 223.5,445.4 
				223.2,445.7 223,446 222.8,446.2 222.5,446.5 222.3,446.8 222,447 221.8,447.3 221.6,447.5 221.3,447.8 221.1,448.1 220.8,448.3 
				220.6,448.6 220.3,448.8 220.1,449.1 219.8,449.4 219.6,449.6 219.3,449.9 219.1,450.1 218.8,450.4 218.6,450.6 218.3,450.9 
				218,451.1 217.8,451.4 217.5,451.6 217.3,451.9 217,452.1 216.7,452.4 216.5,452.6 216.2,452.9 215.9,453.1 215.7,453.4 
				215.4,453.6 215.1,453.9 214.9,454.1 214.6,454.4 214.3,454.6 214,454.9 213.8,455.1 213.5,455.4 213.2,455.6 212.9,455.8 
				212.6,456.1 212.4,456.3 212.1,456.6 211.8,456.8 211.5,457 211.2,457.3 210.9,457.5 210.7,457.7 210.4,458 210.1,458.2 
				209.8,458.5 209.5,458.7 209.2,458.9 208.9,459.2 208.6,459.4 208.3,459.6 208,459.8 207.7,460.1 207.4,460.3 207.1,460.5 
				206.8,460.7 206.5,460.9 206.1,461 205.8,461 205.4,461 205.1,460.9 204.7,460.8 204.4,460.6 204.1,460.4 203.9,460.1 
				203.7,459.8 203.5,459.4 203.5,459.1 203.4,458.7 203.4,458.4 203.5,458 203.6,457.7 203.8,457.4 204.1,457.1 204.3,456.8 
				204.6,456.6 204.9,456.4 205.2,456.2 205.5,456 205.8,455.7 206.1,455.5 206.3,455.3 206.6,455.1 206.9,454.8 207.2,454.6 
				207.5,454.4 207.7,454.2 208,453.9 208.3,453.7 208.6,453.5 208.8,453.3 209.1,453 209.4,452.8 209.6,452.6 209.9,452.3 
				210.2,452.1 210.4,451.9 210.7,451.6 211,451.4 211.2,451.2 211.5,450.9 211.8,450.7 212,450.5 212.3,450.2 212.5,450 
				212.8,449.8 213.1,449.5 213.3,449.3 213.6,449 213.8,448.8 214.1,448.6 214.3,448.3 214.6,448.1 214.8,447.8 215.1,447.6 
				215.3,447.4 215.6,447.1 215.8,446.9 216,446.6 216.3,446.4 216.5,446.1 216.8,445.9 217,445.6 217.2,445.4 217.5,445.1 
				217.7,444.9 218,444.6 218.2,444.4 218.4,444.1 218.6,443.9 218.9,443.6 219.1,443.4 219.3,443.1 219.6,442.9 219.8,442.6 
				220,442.4 220.2,442.1 220.5,441.9 220.7,441.6 220.9,441.4 221.1,441.1 221.3,440.8 221.6,440.6 221.8,440.3 222,440.1 
				222.2,439.8 222.4,439.6 222.6,439.3 222.8,439 223,438.8 223.3,438.5 223.5,438.3 223.7,438 223.9,437.7 224.1,437.5 
				224.3,437.2 224.5,436.9 224.7,436.7 224.9,436.4 225.1,436.1 225.3,435.9 225.5,435.6 225.7,435.3 225.9,435.1 226.1,434.8 
				226.3,434.5 226.4,434.3 226.6,434 226.8,433.7 227,433.5 227.2,433.2 227.4,432.9 227.6,432.7 227.8,432.4 227.9,432.1 
				228.1,431.9 228.3,431.6 228.5,431.3 228.7,431 228.8,430.8 229,430.5 229.2,430.2 229.4,429.9 229.5,429.7 229.7,429.4 
				229.9,429.1 230,428.8 230.2,428.6 230.4,428.3 230.5,428 230.7,427.7 230.9,427.5 231,427.2 231.2,426.9 231.3,426.6 
				231.5,426.3 231.7,426.1 231.8,425.8 232,425.5 232.1,425.2 232.3,424.9 232.4,424.7 232.6,424.4 232.7,424.1 232.9,423.8 
				233,423.5 233.2,423.3 233.3,423 233.5,422.7 233.6,422.4 233.8,422.1 233.9,421.8 234,421.6 234.2,421.3 234.3,421 234.5,420.7 
				234.6,420.4 234.7,420.1 234.9,419.8 235,419.6 235.1,419.3 235.2,419 235.4,418.7 235.5,418.4 235.6,418.1 235.8,417.8 
				235.9,417.6 236,417.3 236.1,417 236.2,416.7 236.4,416.4 236.5,416.1 236.6,415.8 236.7,415.5 236.8,415.2 237,414.9 
				237.1,414.7 237.2,414.4 237.3,414.1 237.4,413.8 237.5,413.5 237.6,413.2 237.7,412.9 237.8,412.6 237.9,412.3 238,412 
				238.1,411.7 238.2,411.4 238.3,411.2 238.4,410.9 238.5,410.6 238.6,410.3 238.7,410 238.8,409.7 238.9,409.4 239,409.1 
				239.1,408.8 239.2,408.5 239.3,408.2 239.4,407.9 239.4,407.6 239.5,407.3 239.6,407 239.7,406.7 239.8,406.4 239.9,406.1 
				239.9,405.8 240,405.5 240.1,405.3 240.2,405 240.2,404.7 240.3,404.4 240.4,404.1 240.5,403.8 240.5,403.5 240.6,403.2 
				240.7,402.9 240.7,402.6 240.8,402.3 240.9,402 240.9,401.7 241,401.4 241,401.1 241.1,400.8 241.2,400.5 241.2,400.2 
				241.3,399.9 241.3,399.6 241.4,399.3 241.4,399 241.5,398.7 241.5,398.4 241.6,398.1 241.6,397.8 241.7,397.5 241.7,397.2 
				241.8,396.9 241.8,396.6 241.9,396.3 241.9,396 241.9,395.7 242,395.4 242,395.1 242,394.8 242.1,394.5 242.1,394.2 242.1,393.9 
				242.2,393.6 242.2,393.3 242.2,393 242.3,392.7 242.3,392.4 242.3,392.1 242.3,391.8 242.4,391.5 242.4,391.2 242.4,390.9 
				242.4,390.6 242.5,390.3 242.5,390 242.5,389.7 242.5,389.4 242.5,389.1 242.5,388.8 242.5,388.5 242.6,388.2 242.6,387.8 
				242.6,387.5 242.6,387.2 242.6,386.9 242.6,386.6 242.6,386.3 242.6,386 242.6,385.7 242.6,385.4 242.6,385.1 242.6,384.8 
				242.6,384.5 242.6,384.2 242.6,383.9 242.6,383.6 242.6,383.3 242.6,383 242.5,382.7 242.5,382.4 242.5,382.1 242.5,381.8 
				242.5,381.5 242.5,381.2 242.5,380.9 242.4,380.6 242.4,380.3 242.4,380 242.4,379.7 242.3,379.4 242.3,379.1 242.3,378.8 
				242.3,378.5 242.2,378.2 242.2,377.9 242.2,377.6 242.1,377.3 242.1,377 242.1,376.7 242,376.4 242,376.1 242,375.8 241.9,375.5 
				241.9,375.2 241.9,374.9 241.8,374.6 241.8,374.3 241.7,374 241.7,373.7 241.6,373.4 241.6,373.1 241.5,372.8 241.5,372.5 
				241.4,372.2 241.4,371.9 241.3,371.6 241.3,371.3 241.2,371 241.1,370.7 241.1,370.4 241,370.1 241,369.8 240.9,369.5 
				240.8,369.2 240.8,368.9 240.7,368.6 240.6,368.3 240.6,368 240.5,367.7 240.4,367.4 240.4,367.1 240.3,366.8 240.2,366.5 
				240.1,366.2 240,365.9 240,365.6 239.9,365.4 239.8,365.1 239.7,364.8 239.6,364.5 239.6,364.2 239.5,363.9 239.4,363.6 
				239.3,363.3 239.2,363 239.1,362.7 239,362.4 238.9,362.1 238.8,361.8 238.7,361.5 238.6,361.2 238.5,360.9 238.4,360.6 
				238.3,360.3 238.2,360.1 238.1,359.8 238,359.5 237.9,359.2 237.8,358.9 237.7,358.6 237.6,358.3 237.5,358 237.4,357.7 
				237.3,357.4 237.2,357.1 237,356.8 236.9,356.6 236.8,356.3 236.7,356 236.6,355.7 236.4,355.4 236.3,355.1 236.2,354.8 
				236.1,354.5 235.9,354.2 235.8,354 235.7,353.7 235.6,353.4 235.4,353.1 235.3,352.8 235.2,352.5 235,352.2 234.9,351.9 
				234.7,351.7 234.6,351.4 234.5,351.1 234.3,350.8 234.2,350.5 234,350.2 233.9,350 233.7,349.7 233.6,349.4 233.4,349.1 
				233.3,348.8 233.1,348.5 233,348.3 232.8,348 232.7,347.7 232.5,347.4 232.4,347.1 232.2,346.9 232,346.6 231.9,346.3 231.7,346 
				231.6,345.7 231.4,345.5 231.2,345.2 231.1,344.9 230.9,344.6 230.7,344.3 230.5,344.1 230.4,343.8 230.2,343.5 230,343.2 
				229.8,343 229.7,342.7 229.5,342.4 229.3,342.1 229.1,341.9 228.9,341.6 228.8,341.3 228.6,341 228.4,340.8 228.2,340.5 
				228,340.2 227.8,339.9 227.6,339.7 227.4,339.4 227.2,339.1 227,338.9 226.8,338.6 226.6,338.3 226.4,338.1 226.2,337.8 
				226,337.5 225.8,337.3 225.6,337 225.4,336.7 225.2,336.4 225,336.2 224.8,335.9 224.6,335.7 224.4,335.4 224.2,335.1 
				223.9,334.9 223.7,334.6 223.5,334.3 223.3,334.1 223.1,333.8 222.8,333.5 222.6,333.3 222.4,333 222.2,332.8 221.9,332.5 
				221.7,332.2 221.5,332 221.2,331.7 221,331.5 220.8,331.2 220.5,330.9 220.3,330.7 220.1,330.4 219.8,330.2 219.6,329.9 
				219.4,329.7 219.1,329.4 218.9,329.2 218.6,328.9 218.4,328.7 218.1,328.4 217.9,328.1 217.6,327.9 217.4,327.6 217.1,327.4 
				216.9,327.1 216.6,326.9 216.3,326.6 216.1,326.4 215.8,326.1 215.6,325.9 215.3,325.7 215,325.4 214.8,325.2 214.5,324.9 
				214.2,324.7 214,324.4 213.7,324.2 213.4,323.9 213.2,323.7 212.9,323.5 212.6,323.2 212.3,323 212.1,322.7 211.8,322.5 
				211.5,322.2 211.2,322 210.9,321.8 210.6,321.5 210.4,321.3 210.1,321.1 209.8,320.8 209.5,320.6 209.2,320.4 208.9,320.1 
				208.6,319.9 208.3,319.6 208,319.4 207.7,319.2 207.4,319 207.1,318.7 206.8,318.5 206.5,318.3 206.2,318 205.9,317.8 
				205.6,317.6 205.3,317.3 205,317.1 204.6,316.9 204.3,316.7 204,316.4 203.7,316.2 203.4,316 203.1,315.8 202.9,315.5 
				202.7,315.2 202.5,314.9 202.4,314.5 202.4,314.1 202.4,313.8 202.5,313.4 202.6,313.1 202.8,312.8 203.1,312.5 203.3,312.3 
				203.6,312.1 204,311.9 204.3,311.8 204.7,311.8 205,311.8 			"/>
		</defs>
		<clipPath id="SVGID_12_">
			<use xlink:href="#SVGID_11_"  style="overflow:visible;"/>
		</clipPath>
		<g transform="matrix(1 0 0 1 1.525879e-05 0)" style="clip-path:url(#SVGID_12_);">
			
				<image style="overflow:visible;" width="61" height="196" xlink:href="F6ED656D.jpg"  transform="matrix(0.7598 0 0 0.7691 201.6339 311.0276)">
			</image>
		</g>
	</g>
	<g>
		<defs>
			<polygon id="SVGID_13_" points="998.1,349.6 998.3,349.6 998.5,349.7 998.8,349.7 999,349.9 999.2,350 999.4,350.1 999.5,350.3 
				999.7,350.5 999.8,350.7 999.9,350.9 1000,351.1 1000.1,351.4 1000.1,351.6 1000.1,351.9 1000.1,422.2 1000.1,422.4 1000,422.7 
				1000,422.9 999.9,423.1 999.8,423.3 999.7,423.6 999.5,423.7 999.3,423.9 999.1,424.1 998.9,424.2 998.7,424.3 998.5,424.4 
				998.3,424.5 998,424.5 997.8,424.5 980.7,424.5 980.4,424.5 980.2,424.4 979.9,424.3 979.7,424.3 979.5,424.1 979.3,424 
				979.1,423.8 978.9,423.6 978.8,423.4 978.6,423.2 978.5,423 978.5,422.8 978.4,422.5 978.4,422.3 978.4,422 978.4,421.8 
				978.5,421.5 978.5,421.3 978.6,421.1 978.8,420.9 978.9,420.7 979.1,420.5 979.3,420.3 979.5,420.2 979.7,420.1 980,420 
				980.2,419.9 980.4,419.9 980.7,419.8 995.5,419.9 995.5,354.2 980.5,354.2 980.3,354.2 980,354.1 979.8,354 979.5,354 
				979.3,353.8 979.1,353.7 978.9,353.5 978.8,353.4 978.6,353.2 978.5,352.9 978.4,352.7 978.3,352.5 978.2,352.2 978.2,352 
				978.2,351.7 978.2,351.5 978.3,351.2 978.4,351 978.5,350.8 978.6,350.6 978.8,350.4 978.9,350.2 979.1,350 979.3,349.9 
				979.5,349.8 979.8,349.7 980,349.6 980.3,349.6 980.5,349.5 997.8,349.5 998.1,349.6 			"/>
		</defs>
		<clipPath id="SVGID_14_">
			<use xlink:href="#SVGID_13_"  style="overflow:visible;"/>
		</clipPath>
		<g transform="matrix(1 0 0 1 0 0)" style="clip-path:url(#SVGID_14_);">
			
				<image style="overflow:visible;" width="31" height="100" xlink:href="F6ED6562.jpg"  transform="matrix(0.7565 0 0 0.7649 977.4387 348.7793)">
			</image>
		</g>
	</g>
	<g>
		<defs>
			<polygon id="SVGID_15_" points="47.9,349.3 48.2,349.3 48.4,349.4 48.7,349.5 48.9,349.5 49.1,349.7 49.3,349.8 49.5,350 
				49.7,350.2 49.8,350.4 50,350.6 50.1,350.8 50.2,351 50.2,351.3 50.2,351.5 50.2,351.8 50.2,352 50.1,352.3 50.1,352.5 50,352.7 
				49.8,352.9 49.7,353.1 49.5,353.3 49.3,353.5 49.1,353.6 48.9,353.7 48.7,353.8 48.4,353.9 48.2,353.9 47.9,353.9 30.8,353.9 
				30.8,420.6 47.6,420.6 47.9,420.6 48.1,420.7 48.4,420.7 48.6,420.8 48.8,420.9 49,421.1 49.2,421.3 49.4,421.4 49.6,421.6 
				49.7,421.8 49.8,422.1 49.9,422.3 49.9,422.6 49.9,422.8 49.9,423.1 49.9,423.3 49.9,423.5 49.8,423.8 49.7,424 49.6,424.2 
				49.4,424.4 49.2,424.6 49,424.8 48.8,424.9 48.6,425 48.4,425.1 48.1,425.2 47.9,425.2 47.6,425.2 28.5,425.2 28.2,425.2 
				28,425.2 27.7,425.1 27.5,425 27.3,424.9 27.1,424.8 26.9,424.6 26.7,424.5 26.6,424.3 26.5,424.1 26.3,423.8 26.3,423.6 
				26.2,423.4 26.2,423.1 26.1,422.9 26.2,351.6 26.2,351.3 26.2,351.1 26.3,350.8 26.4,350.6 26.5,350.4 26.6,350.2 26.8,350 
				26.9,349.8 27.1,349.7 27.3,349.6 27.6,349.5 27.8,349.4 28,349.3 28.3,349.3 28.5,349.3 47.9,349.3 			"/>
		</defs>
		<clipPath id="SVGID_16_">
			<use xlink:href="#SVGID_15_"  style="overflow:visible;"/>
		</clipPath>
		<g style="clip-path:url(#SVGID_16_);">
			
				<image style="overflow:visible;" width="34" height="101" xlink:href="F6ED6566.jpg"  transform="matrix(0.7536 0 0 0.7675 25.3757 348.4844)">
			</image>
		</g>
	</g>
	<g>
		<defs>
			<polygon id="SVGID_17_" points="517,89.8 517.7,90.3 518.2,91 518.4,91.9 518.4,675.7 518.2,676.6 517.7,677.3 517,677.8 
				516.1,678 515.2,677.8 514.4,677.3 513.9,676.6 513.8,675.7 513.8,91.9 513.9,91 514.4,90.3 515.2,89.8 516.1,89.6 517,89.8 			
				"/>
		</defs>
		<defs>
			<polygon id="SVGID_18_" points="49,91.4 47.3,679.3 980,677.7 980,89.8 49,91.4 			"/>
		</defs>
		<clipPath id="SVGID_19_">
			<use xlink:href="#SVGID_17_"  style="overflow:visible;"/>
		</clipPath>
		<clipPath id="SVGID_20_" class="st0">
			<use xlink:href="#SVGID_18_"  style="overflow:visible;"/>
		</clipPath>
		<g style="clip-path:url(#SVGID_20_);">
			
				<image style="overflow:visible;" width="8" height="765" xlink:href="F6ED6567.jpg"  transform="matrix(0.77 0 0 0.7699 513 89.7555)">
			</image>
		</g>
	</g>
	<g>
		<defs>
			<path id="SVGID_21_" d="M980.9,87.6l0.8,0.5l0.5,0.7l0.2,0.9v587.9l-0.2,0.9l-0.5,0.7l-0.7,0.5L980,680l-932.6,1.6l-0.9-0.2
				l-0.8-0.5l-0.5-0.8l-0.2-0.9l1.6-587.9l0.2-0.9l0.5-0.7l0.7-0.5l0.9-0.2l931-1.6L980.9,87.6L980.9,87.6z M51.3,93.7L49.7,677
				l928-1.6V92.1L51.3,93.7L51.3,93.7z"/>
		</defs>
		<clipPath id="SVGID_22_">
			<use xlink:href="#SVGID_21_"  style="overflow:visible;"/>
		</clipPath>
		<g transform="matrix(1 0 0 1 0 0)" style="clip-path:url(#SVGID_22_);">
			
				<image style="overflow:visible;" width="1220" height="774" xlink:href="B04FA7C3.jpg"  transform="matrix(0.7695 0 0 0.7696 44.2612 86.6757)">
			</image>
		</g>
	</g>
	<g>
		<defs>
			<polygon id="SVGID_23_" points="978.3,196.7 979,197.2 979.5,198 979.7,198.9 979.5,199.8 979.1,200.5 978.3,201 977.4,201.2 
				826.4,202.5 827.7,566.4 978.7,566.4 979.6,566.6 980.3,567.1 980.8,567.8 981,568.7 980.8,569.6 980.3,570.4 979.6,570.9 
				978.7,571 825.4,571 824.5,570.9 823.7,570.4 823.2,569.6 823,568.7 821.8,200.2 821.9,199.3 822.4,198.6 823.2,198 824,197.9 
				977.4,196.6 978.3,196.7 			"/>
		</defs>
		<clipPath id="SVGID_24_">
			<use xlink:href="#SVGID_23_"  style="overflow:visible;"/>
		</clipPath>
		<g transform="matrix(1 0 0 1 0 0)" style="clip-path:url(#SVGID_24_);">
			
				<image style="overflow:visible;" width="209" height="489" xlink:href="B04FA7C1.jpg"  transform="matrix(0.7694 0 0 0.7689 820.9822 195.8061)">
			</image>
		</g>
	</g>
	<g>
		<defs>
			<polygon id="SVGID_25_" points="977.8,294.5 978.2,294.6 978.5,294.8 978.8,295 979.1,295.3 979.3,295.6 979.5,295.9 
				979.6,296.3 979.7,296.6 979.7,297 979.6,297.4 979.5,297.7 979.3,298.1 979.1,298.4 978.8,298.6 978.5,298.9 978.2,299 
				977.8,299.1 977.4,299.1 930.7,299.1 930.7,469.8 980,469.8 980.4,469.8 980.7,469.9 981.1,470 981.4,470.3 981.7,470.5 
				981.9,470.8 982.1,471.1 982.2,471.5 982.3,471.9 982.3,472.3 982.2,472.6 982.1,473 981.9,473.3 981.7,473.6 981.4,473.9 
				981.1,474.1 980.7,474.3 980.4,474.4 980,474.4 928.4,474.4 928.1,474.4 927.7,474.3 927.4,474.1 927.1,473.9 926.8,473.7 
				926.6,473.4 926.4,473.1 926.2,472.8 926.2,472.4 926.1,472.1 926.1,296.8 926.2,296.5 926.2,296.1 926.4,295.8 926.6,295.5 
				926.8,295.2 927.1,295 927.4,294.8 927.7,294.6 928.1,294.5 928.4,294.5 977.4,294.5 977.8,294.5 			"/>
		</defs>
		<clipPath id="SVGID_26_">
			<use xlink:href="#SVGID_25_"  style="overflow:visible;"/>
		</clipPath>
		<g transform="matrix(1 0 0 1 6.103516e-05 0)" style="clip-path:url(#SVGID_26_);">
			
				<image style="overflow:visible;" width="75" height="236" xlink:href="B04FA7C7.jpg"  transform="matrix(0.7693 0 0 0.7687 925.3604 293.7421)">
			</image>
		</g>
	</g>
	<g>
		<defs>
			<polygon id="SVGID_27_" points="203.8,195.5 204.6,196 205.1,196.7 205.3,197.6 207.8,568.7 207.7,569.6 207.2,570.4 
				206.4,570.9 205.5,571 48.3,571 47.4,570.9 46.7,570.4 46.2,569.6 46,568.7 46.2,567.8 46.7,567.1 47.4,566.6 48.3,566.4 
				203.2,566.4 200.6,199.9 49.6,199.9 48.7,199.7 48,199.2 47.5,198.5 47.3,197.6 47.5,196.7 48,196 48.7,195.5 49.6,195.3 
				202.9,195.3 203.8,195.5 			"/>
		</defs>
		<clipPath id="SVGID_28_">
			<use xlink:href="#SVGID_27_"  style="overflow:visible;"/>
		</clipPath>
		<g style="clip-path:url(#SVGID_28_);">
			
				<image style="overflow:visible;" width="213" height="491" xlink:href="B04FA7C2.jpg"  transform="matrix(0.767 0 0 0.7684 45.2275 194.5172)">
			</image>
		</g>
	</g>
	<g>
		<defs>
			<polygon id="SVGID_29_" points="102.5,298.4 102.9,298.5 103.2,298.6 103.5,298.8 103.8,299.1 104,299.3 104.2,299.6 104.4,300 
				104.5,300.3 104.5,300.7 105,470 105,470.4 104.9,470.7 104.8,471.1 104.6,471.4 104.4,471.7 104.1,471.9 103.8,472.1 
				103.4,472.2 103.1,472.3 102.7,472.3 48.2,472.6 47.8,472.6 47.5,472.5 47.1,472.4 46.8,472.2 46.5,471.9 46.3,471.6 46.1,471.3 
				46,470.9 45.9,470.5 45.9,470.1 46,469.8 46.1,469.4 46.3,469.1 46.5,468.8 46.8,468.5 47.1,468.3 47.4,468.1 47.8,468 48.2,468 
				100.4,467.7 99.9,303 48.2,303 47.8,303 47.4,302.9 47.1,302.7 46.8,302.5 46.5,302.3 46.2,302 46.1,301.6 45.9,301.3 
				45.9,300.9 45.9,300.5 45.9,300.1 46.1,299.8 46.2,299.4 46.5,299.1 46.8,298.9 47.1,298.7 47.4,298.5 47.8,298.4 48.2,298.4 
				102.2,298.4 102.5,298.4 			"/>
		</defs>
		<clipPath id="SVGID_30_">
			<use xlink:href="#SVGID_29_"  style="overflow:visible;"/>
		</clipPath>
		<g transform="matrix(1 0 0 1 0 0)" style="clip-path:url(#SVGID_30_);">
			
				<image style="overflow:visible;" width="79" height="229" xlink:href="B04FA7DD.jpg"  transform="matrix(0.7683 0 0 0.7677 45.112 297.6073)">
			</image>
		</g>
	</g>
	<g>
		<defs>
			<polygon id="SVGID_31_" points="824.1,312.3 824.5,312.3 824.8,312.4 825.2,312.6 825.5,312.8 825.7,313.1 825.9,313.4 
				826.1,313.7 826.2,314 826.3,314.4 826.3,314.7 826.2,315.1 826.1,315.5 825.9,315.8 825.7,316.1 825.5,316.3 825.2,316.5 
				824.8,316.7 824.5,316.9 824.2,317.2 823.8,317.4 823.5,317.6 823.2,317.8 822.8,318 822.5,318.2 822.2,318.4 821.9,318.6 
				821.6,318.8 821.2,319.1 820.9,319.3 820.6,319.5 820.3,319.7 820,319.9 819.7,320.1 819.4,320.4 819.1,320.6 818.8,320.8 
				818.4,321 818.1,321.3 817.8,321.5 817.5,321.7 817.2,321.9 816.9,322.2 816.7,322.4 816.4,322.6 816.1,322.9 815.8,323.1 
				815.5,323.3 815.2,323.5 814.9,323.8 814.6,324 814.3,324.2 814.1,324.5 813.8,324.7 813.5,325 813.2,325.2 812.9,325.4 
				812.7,325.7 812.4,325.9 812.1,326.2 811.9,326.4 811.6,326.6 811.3,326.9 811.1,327.1 810.8,327.4 810.5,327.6 810.3,327.9 
				810,328.1 809.8,328.4 809.5,328.6 809.2,328.9 809,329.1 808.7,329.4 808.5,329.6 808.2,329.9 808,330.1 807.7,330.4 
				807.5,330.6 807.3,330.9 807,331.1 806.8,331.4 806.5,331.7 806.3,331.9 806.1,332.2 805.8,332.4 805.6,332.7 805.4,332.9 
				805.1,333.2 804.9,333.5 804.7,333.7 804.4,334 804.2,334.3 804,334.5 803.8,334.8 803.6,335.1 803.3,335.3 803.1,335.6 
				802.9,335.9 802.7,336.1 802.5,336.4 802.3,336.7 802.1,336.9 801.8,337.2 801.6,337.5 801.4,337.7 801.2,338 801,338.3 
				800.8,338.6 800.6,338.8 800.4,339.1 800.2,339.4 800,339.7 799.8,339.9 799.6,340.2 799.4,340.5 799.3,340.8 799.1,341.1 
				798.9,341.3 798.7,341.6 798.5,341.9 798.3,342.2 798.1,342.5 798,342.7 797.8,343 797.6,343.3 797.4,343.6 797.2,343.9 
				797.1,344.2 796.9,344.4 796.7,344.7 796.6,345 796.4,345.3 796.2,345.6 796.1,345.9 795.9,346.2 795.7,346.5 795.6,346.7 
				795.4,347 795.3,347.3 795.1,347.6 794.9,347.9 794.8,348.2 794.6,348.5 794.5,348.8 794.3,349.1 794.2,349.4 794,349.7 
				793.9,350 793.7,350.3 793.6,350.5 793.4,350.8 793.3,351.1 793.2,351.4 793,351.7 792.9,352 792.8,352.3 792.6,352.6 
				792.5,352.9 792.4,353.2 792.2,353.5 792.1,353.8 792,354.1 791.8,354.4 791.7,354.7 791.6,355 791.5,355.3 791.3,355.6 
				791.2,355.9 791.1,356.2 791,356.5 790.9,356.8 790.8,357.1 790.7,357.4 790.5,357.7 790.4,358.1 790.3,358.4 790.2,358.7 
				790.1,359 790,359.3 789.9,359.6 789.8,359.9 789.7,360.2 789.6,360.5 789.5,360.8 789.4,361.1 789.3,361.4 789.2,361.7 
				789.1,362 789,362.3 788.9,362.7 788.8,363 788.8,363.3 788.7,363.6 788.6,363.9 788.5,364.2 788.4,364.5 788.3,364.8 
				788.2,365.1 788.2,365.4 788.1,365.8 788,366.1 787.9,366.4 787.9,366.7 787.8,367 787.7,367.3 787.7,367.6 787.6,367.9 
				787.5,368.3 787.4,368.6 787.4,368.9 787.3,369.2 787.3,369.5 787.2,369.8 787.1,370.1 787.1,370.5 787,370.8 787,371.1 
				786.9,371.4 786.9,371.7 786.8,372 786.8,372.3 786.7,372.7 786.7,373 786.6,373.3 786.6,373.6 786.5,373.9 786.5,374.2 
				786.4,374.6 786.4,374.9 786.4,375.2 786.3,375.5 786.3,375.8 786.2,376.1 786.2,376.5 786.2,376.8 786.1,377.1 786.1,377.4 
				786.1,377.7 786.1,378 786,378.4 786,378.7 786,379 786,379.3 785.9,379.6 785.9,380 785.9,380.3 785.9,380.6 785.9,380.9 
				785.8,381.2 785.8,381.5 785.8,381.9 785.8,382.2 785.8,382.5 785.8,382.8 785.8,383.1 785.8,383.4 785.8,383.8 785.8,384.1 
				785.8,384.4 785.8,384.7 785.7,385 785.7,385.4 785.8,385.7 785.8,386 785.8,386.3 785.8,386.6 785.8,386.9 785.8,387.3 
				785.8,387.6 785.8,387.9 785.8,388.2 785.8,388.5 785.8,388.9 785.8,389.2 785.9,389.5 785.9,389.8 785.9,390.1 785.9,390.4 
				785.9,390.8 786,391.1 786,391.4 786,391.7 786,392 786.1,392.3 786.1,392.7 786.1,393 786.2,393.3 786.2,393.6 786.2,393.9 
				786.2,394.2 786.3,394.6 786.3,394.9 786.4,395.2 786.4,395.5 786.4,395.8 786.5,396.1 786.5,396.4 786.6,396.8 786.6,397.1 
				786.7,397.4 786.7,397.7 786.8,398 786.8,398.3 786.9,398.6 786.9,399 787,399.3 787,399.6 787.1,399.9 787.1,400.2 787.2,400.5 
				787.2,400.8 787.3,401.1 787.4,401.5 787.4,401.8 787.5,402.1 787.5,402.4 787.6,402.7 787.7,403 787.8,403.3 787.8,403.6 
				787.9,403.9 788,404.3 788,404.6 788.1,404.9 788.2,405.2 788.3,405.5 788.3,405.8 788.4,406.1 788.5,406.4 788.6,406.7 
				788.7,407 788.7,407.3 788.8,407.6 788.9,407.9 789,408.3 789.1,408.6 789.2,408.9 789.3,409.2 789.4,409.5 789.4,409.8 
				789.5,410.1 789.6,410.4 789.7,410.7 789.8,411 789.9,411.3 790,411.6 790.1,411.9 790.2,412.2 790.3,412.5 790.4,412.8 
				790.5,413.1 790.6,413.4 790.7,413.7 790.9,414 791,414.3 791.1,414.6 791.2,414.9 791.3,415.2 791.4,415.5 791.5,415.8 
				791.6,416.1 791.8,416.4 791.9,416.7 792,417 792.1,417.3 792.2,417.5 792.4,417.8 792.5,418.1 792.6,418.4 792.7,418.7 
				792.9,419 793,419.3 793.1,419.6 793.2,419.9 793.4,420.2 793.5,420.5 793.6,420.7 793.8,421 793.9,421.3 794,421.6 794.2,421.9 
				794.3,422.2 794.5,422.5 794.6,422.8 794.7,423 794.9,423.3 795,423.6 795.2,423.9 795.3,424.2 795.5,424.5 795.6,424.7 
				795.8,425 795.9,425.3 796.1,425.6 796.2,425.9 796.4,426.1 796.5,426.4 796.7,426.7 796.8,427 797,427.2 797.2,427.5 
				797.3,427.8 797.5,428.1 797.6,428.3 797.8,428.6 798,428.9 798.1,429.2 798.3,429.4 798.5,429.7 798.6,430 798.8,430.2 
				799,430.5 799.2,430.8 799.3,431 799.5,431.3 799.7,431.6 799.9,431.8 800,432.1 800.2,432.4 800.4,432.6 800.6,432.9 
				800.7,433.2 800.9,433.4 801.1,433.7 801.3,433.9 801.5,434.2 801.7,434.5 801.9,434.7 802,435 802.2,435.2 802.4,435.5 
				802.6,435.7 802.8,436 803,436.3 803.2,436.5 803.4,436.8 803.6,437 803.8,437.3 804,437.5 804.2,437.8 804.4,438 804.6,438.3 
				804.8,438.5 805,438.7 805.2,439 805.4,439.2 805.6,439.5 805.8,439.7 806,440 806.2,440.2 806.4,440.5 806.6,440.7 806.9,440.9 
				807.1,441.2 807.3,441.4 807.5,441.6 807.7,441.9 807.9,442.1 808.2,442.3 808.4,442.6 808.6,442.8 808.8,443 809,443.3 
				809.3,443.5 809.5,443.7 809.7,444 809.9,444.2 810.2,444.4 810.4,444.6 810.6,444.9 810.8,445.1 811.1,445.3 811.3,445.5 
				811.5,445.8 811.8,446 812,446.2 812.2,446.4 812.5,446.6 812.7,446.9 813,447.1 813.2,447.3 813.4,447.5 813.7,447.7 
				813.9,447.9 814.2,448.1 814.4,448.4 814.7,448.6 814.9,448.8 815.1,449 815.4,449.2 815.6,449.4 815.9,449.6 816.1,449.8 
				816.4,450 816.6,450.2 816.9,450.4 817.2,450.6 817.4,450.8 817.7,451 817.9,451.2 818.2,451.4 818.4,451.6 818.7,451.8 819,452 
				819.2,452.2 819.5,452.4 819.8,452.6 820,452.7 820.3,452.9 820.6,453.1 820.8,453.3 821.1,453.5 821.4,453.7 821.6,453.9 
				821.9,454 822.2,454.2 822.4,454.4 822.7,454.6 823,454.8 823.3,454.9 823.5,455.1 823.8,455.3 824.1,455.5 824.4,455.6 
				824.7,455.8 824.9,456 825.2,456.1 825.5,456.3 825.8,456.5 826.1,456.7 826.4,456.9 826.6,457.2 826.7,457.5 826.9,457.9 
				826.9,458.2 826.9,458.6 826.9,459 826.8,459.3 826.6,459.6 826.4,459.9 826.2,460.2 825.9,460.4 825.6,460.6 825.2,460.7 
				824.9,460.8 824.5,460.8 824.1,460.7 823.8,460.6 823.5,460.5 823.2,460.3 822.9,460.1 822.6,459.9 822.3,459.7 822,459.6 
				821.7,459.4 821.4,459.2 821.1,459 820.8,458.8 820.5,458.6 820.2,458.5 819.9,458.3 819.6,458.1 819.3,457.9 819,457.7 
				818.8,457.5 818.5,457.3 818.2,457.1 817.9,456.9 817.6,456.7 817.3,456.5 817.1,456.3 816.8,456.1 816.5,455.9 816.2,455.7 
				815.9,455.5 815.7,455.3 815.4,455.1 815.1,454.9 814.9,454.7 814.6,454.5 814.3,454.2 814,454 813.8,453.8 813.5,453.6 
				813.2,453.4 813,453.2 812.7,453 812.4,452.7 812.2,452.5 811.9,452.3 811.7,452.1 811.4,451.9 811.1,451.6 810.9,451.4 
				810.6,451.2 810.4,451 810.1,450.7 809.9,450.5 809.6,450.3 809.4,450 809.1,449.8 808.9,449.6 808.6,449.3 808.4,449.1 
				808.1,448.9 807.9,448.6 807.6,448.4 807.4,448.2 807.1,447.9 806.9,447.7 806.7,447.5 806.4,447.2 806.2,447 805.9,446.7 
				805.7,446.5 805.5,446.2 805.2,446 805,445.7 804.8,445.5 804.5,445.3 804.3,445 804.1,444.8 803.9,444.5 803.6,444.3 803.4,444 
				803.2,443.7 803,443.5 802.7,443.2 802.5,443 802.3,442.7 802.1,442.5 801.9,442.2 801.6,442 801.4,441.7 801.2,441.4 801,441.2 
				800.8,440.9 800.6,440.6 800.4,440.4 800.2,440.1 799.9,439.9 799.7,439.6 799.5,439.3 799.3,439.1 799.1,438.8 798.9,438.5 
				798.7,438.2 798.5,438 798.3,437.7 798.1,437.4 797.9,437.2 797.7,436.9 797.5,436.6 797.3,436.3 797.1,436.1 796.9,435.8 
				796.8,435.5 796.6,435.2 796.4,435 796.2,434.7 796,434.4 795.8,434.1 795.6,433.8 795.4,433.6 795.3,433.3 795.1,433 
				794.9,432.7 794.7,432.4 794.5,432.1 794.4,431.8 794.2,431.6 794,431.3 793.8,431 793.7,430.7 793.5,430.4 793.3,430.1 
				793.2,429.8 793,429.5 792.8,429.2 792.7,429 792.5,428.7 792.3,428.4 792.2,428.1 792,427.8 791.9,427.5 791.7,427.2 
				791.5,426.9 791.4,426.6 791.2,426.3 791.1,426 790.9,425.7 790.8,425.4 790.6,425.1 790.5,424.8 790.3,424.5 790.2,424.2 
				790,423.9 789.9,423.6 789.7,423.3 789.6,423 789.5,422.7 789.3,422.4 789.2,422.1 789,421.8 788.9,421.5 788.8,421.2 
				788.6,420.9 788.5,420.5 788.4,420.2 788.2,419.9 788.1,419.6 788,419.3 787.8,419 787.7,418.7 787.6,418.4 787.5,418.1 
				787.3,417.8 787.2,417.5 787.1,417.1 787,416.8 786.9,416.5 786.7,416.2 786.6,415.9 786.5,415.6 786.4,415.3 786.3,414.9 
				786.2,414.6 786.1,414.3 786,414 785.8,413.7 785.7,413.4 785.6,413 785.5,412.7 785.4,412.4 785.3,412.1 785.2,411.8 
				785.1,411.4 785,411.1 784.9,410.8 784.8,410.5 784.7,410.2 784.6,409.8 784.6,409.5 784.5,409.2 784.4,408.9 784.3,408.5 
				784.2,408.2 784.1,407.9 784,407.6 783.9,407.3 783.9,406.9 783.8,406.6 783.7,406.3 783.6,406 783.5,405.6 783.5,405.3 
				783.4,405 783.3,404.7 783.2,404.3 783.2,404 783.1,403.7 783,403.3 783,403 782.9,402.7 782.8,402.4 782.8,402 782.7,401.7 
				782.6,401.4 782.6,401 782.5,400.7 782.5,400.4 782.4,400.1 782.3,399.7 782.3,399.4 782.2,399.1 782.2,398.7 782.1,398.4 
				782.1,398.1 782,397.7 782,397.4 781.9,397.1 781.9,396.7 781.9,396.4 781.8,396.1 781.8,395.7 781.7,395.4 781.7,395.1 
				781.7,394.7 781.6,394.4 781.6,394.1 781.6,393.7 781.5,393.4 781.5,393.1 781.5,392.7 781.4,392.4 781.4,392.1 781.4,391.7 
				781.4,391.4 781.3,391.1 781.3,390.7 781.3,390.4 781.3,390.1 781.3,389.7 781.2,389.4 781.2,389.1 781.2,388.7 781.2,388.4 
				781.2,388.1 781.2,387.7 781.2,387.4 781.2,387 781.1,386.7 781.1,386.4 781.1,386 781.1,385.7 781.1,385.4 781.1,385 
				781.1,384.7 781.1,384.4 781.1,384 781.1,383.7 781.1,383.4 781.2,383 781.2,382.7 781.2,382.3 781.2,382 781.2,381.7 
				781.2,381.3 781.2,381 781.2,380.7 781.3,380.3 781.3,380 781.3,379.7 781.3,379.3 781.3,379 781.4,378.7 781.4,378.3 781.4,378 
				781.5,377.6 781.5,377.3 781.5,377 781.5,376.6 781.6,376.3 781.6,376 781.7,375.6 781.7,375.3 781.7,375 781.8,374.6 
				781.8,374.3 781.9,374 781.9,373.6 781.9,373.3 782,373 782,372.6 782.1,372.3 782.1,372 782.2,371.6 782.2,371.3 782.3,371 
				782.4,370.6 782.4,370.3 782.5,370 782.5,369.6 782.6,369.3 782.7,369 782.7,368.6 782.8,368.3 782.9,368 782.9,367.6 783,367.3 
				783.1,367 783.1,366.6 783.2,366.3 783.3,366 783.4,365.6 783.4,365.3 783.5,365 783.6,364.6 783.7,364.3 783.8,364 783.9,363.7 
				783.9,363.3 784,363 784.1,362.7 784.2,362.3 784.3,362 784.4,361.7 784.5,361.4 784.6,361 784.7,360.7 784.8,360.4 784.9,360.1 
				785,359.7 785.1,359.4 785.2,359.1 785.3,358.8 785.4,358.4 785.5,358.1 785.6,357.8 785.7,357.5 785.9,357.1 786,356.8 
				786.1,356.5 786.2,356.2 786.3,355.8 786.4,355.5 786.6,355.2 786.7,354.9 786.8,354.6 786.9,354.2 787.1,353.9 787.2,353.6 
				787.3,353.3 787.4,353 787.6,352.6 787.7,352.3 787.9,352 788,351.7 788.1,351.4 788.3,351 788.4,350.7 788.5,350.4 788.7,350.1 
				788.8,349.8 789,349.5 789.1,349.2 789.3,348.8 789.4,348.5 789.6,348.2 789.7,347.9 789.9,347.6 790.1,347.3 790.2,347 
				790.4,346.7 790.5,346.4 790.7,346 790.9,345.7 791,345.4 791.2,345.1 791.4,344.8 791.5,344.5 791.7,344.2 791.9,343.9 
				792.1,343.6 792.2,343.3 792.4,343 792.6,342.7 792.8,342.4 792.9,342.1 793.1,341.8 793.3,341.5 793.5,341.2 793.7,340.9 
				793.9,340.6 794.1,340.3 794.3,340 794.4,339.7 794.6,339.4 794.8,339.1 795,338.8 795.2,338.5 795.4,338.2 795.6,337.9 
				795.8,337.6 796,337.3 796.3,337 796.5,336.7 796.7,336.4 796.9,336.1 797.1,335.8 797.3,335.5 797.5,335.3 797.7,335 798,334.7 
				798.2,334.4 798.4,334.1 798.6,333.8 798.8,333.5 799.1,333.2 799.3,333 799.5,332.7 799.8,332.4 800,332.1 800.2,331.8 
				800.5,331.6 800.7,331.3 800.9,331 801.2,330.7 801.4,330.4 801.7,330.2 801.9,329.9 802.1,329.6 802.4,329.3 802.6,329.1 
				802.9,328.8 803.1,328.5 803.4,328.2 803.7,328 803.9,327.7 804.2,327.4 804.4,327.2 804.7,326.9 804.9,326.6 805.2,326.4 
				805.5,326.1 805.7,325.8 806,325.6 806.3,325.3 806.5,325 806.8,324.8 807.1,324.5 807.4,324.3 807.6,324 807.9,323.7 
				808.2,323.5 808.5,323.2 808.8,323 809.1,322.7 809.3,322.5 809.6,322.2 809.9,321.9 810.2,321.7 810.5,321.4 810.8,321.2 
				811.1,320.9 811.4,320.7 811.7,320.5 812,320.2 812.3,320 812.6,319.7 812.9,319.5 813.2,319.2 813.5,319 813.8,318.7 
				814.1,318.5 814.4,318.3 814.8,318 815.1,317.8 815.4,317.6 815.7,317.3 816,317.1 816.3,316.8 816.7,316.6 817,316.4 
				817.3,316.2 817.7,315.9 818,315.7 818.3,315.5 818.6,315.2 819,315 819.3,314.8 819.6,314.6 820,314.3 820.3,314.1 820.7,313.9 
				821,313.7 821.4,313.5 821.7,313.2 822.1,313 822.4,312.8 822.8,312.6 823.1,312.4 823.4,312.3 823.8,312.3 824.1,312.3 			"/>
		</defs>
		<clipPath id="SVGID_32_">
			<use xlink:href="#SVGID_31_"  style="overflow:visible;"/>
		</clipPath>
		<g transform="matrix(1 0 0 1 0 0)" style="clip-path:url(#SVGID_32_);">
			
				<image style="overflow:visible;" width="62" height="195" xlink:href="B04FA7DE.jpg"  transform="matrix(0.7637 0 0 0.7695 780.36 311.4926)">
			</image>
		</g>
	</g>
</g>
</svg>
